<?xml version="1.0" encoding="UTF-8"?>
<svg width="18px" height="18px" viewBox="0 0 18 18" version="1.1" xmlns="http://www.w3.org/2000/svg" xmlns:xlink="http://www.w3.org/1999/xlink">
    <!-- Generator: Sketch 53.1 (72631) - https://sketchapp.com -->
    <title>facebook</title>
    <desc>Created with Sketch.</desc>
    <g id="Page-1" stroke="none" stroke-width="1" fill="none" fill-rule="evenodd">
        <g id="kss-v4-accordion" transform="translate(-1530.000000, -25.000000)" fill="#FFFFFF" fill-rule="nonzero">
            <path d="M1546.19422,25.2856956 C1546.71877,25.2856956 1547.14288,25.7098032 1547.14288,26.2343574 L1547.14288,41.4799113 C1547.14288,42.0044655 1546.71877,42.4285731 1546.19422,42.4285731 L1541.83037,42.4285731 L1541.83037,35.7879402 L1544.05136,35.7879402 L1544.38618,33.1986514 L1541.83037,33.1986514 L1541.83037,31.5468637 C1541.83037,30.799095 1542.03126,30.2968622 1543.11385,30.2968622 L1544.47546,30.2857015 L1544.47546,27.9754309 C1544.24109,27.9419487 1543.42636,27.8749844 1542.48885,27.8749844 C1540.51341,27.8749844 1539.1518,29.0803429 1539.1518,31.290167 L1539.1518,33.1986514 L1536.91965,33.1986514 L1536.91965,35.7879402 L1539.1518,35.7879402 L1539.1518,42.4285731 L1530.94866,42.4285731 C1530.42411,42.4285731 1530,42.0044655 1530,41.4799113 L1530,26.2343574 C1530,25.7098032 1530.42411,25.2856956 1530.94866,25.2856956 L1546.19422,25.2856956 Z" id="facebook"></path>
        </g>
    </g>
</svg>