<svg xmlns="http://www.w3.org/2000/svg" width="474" height="123" viewBox="0 0 474 123">
    <g fill="none" fill-rule="evenodd">
        <path fill="#FFF" d="M137.83 25.574c.6.404 1.782.723 2.864.723 2.648 0 3.93-1.513 3.93-3.261 0-1.665-.966-2.59-2.864-3.33-1.55-.604-2.232-1.125-2.232-2.184 0-.774.583-1.698 2.115-1.698 1.016 0 1.766.336 2.132.537l.4-1.193c-.5-.286-1.333-.555-2.482-.555-2.181 0-3.63 1.311-3.63 3.076 0 1.598 1.132 2.556 2.964 3.211 1.516.589 2.115 1.194 2.115 2.253 0 1.143-.866 1.933-2.348 1.933-1 0-1.949-.336-2.598-.74l-.366 1.228zm14.571-3.01l1.2 3.565h1.548l-3.83-11.331h-1.749l-3.814 11.33h1.5l1.165-3.563h3.98zm-3.68-1.142l1.099-3.278c.216-.69.4-1.379.566-2.051h.033c.167.655.334 1.328.583 2.067l1.1 3.262h-3.381zm11.257 4.707l4.014-11.331h-1.549l-1.898 5.598c-.5 1.48-.966 2.908-1.283 4.22h-.033c-.3-1.328-.716-2.707-1.199-4.237l-1.749-5.581h-1.565l3.664 11.33h1.598zm11.041-6.523h-4.363v-3.58h4.613v-1.228h-6.061v11.33h6.311v-1.226h-4.863v-4.086h4.363v-1.21zm1.616 6.523h8.193v-1.227h-6.278v-.05l6.195-9.163v-.891h-7.577v1.227h5.695v.05l-6.228 9.197v.857zm12.74 0h8.193v-1.227h-6.278v-.05l6.195-9.163v-.891h-7.577v1.227h5.695v.05l-6.228 9.197v.857zm15.77-3.564l1.2 3.564h1.548l-3.83-11.331h-1.749l-3.813 11.33H196l1.165-3.563h3.98zm-3.68-1.143l1.1-3.278c.216-.69.399-1.379.565-2.051h.034c.166.655.333 1.328.582 2.067l1.1 3.262h-3.38zm11.608 4.707h1.448v-4.32l1.066-1.245 3.697 5.565H217l-4.38-6.523 4.064-4.808h-1.798l-3.431 4.253c-.283.37-.583.773-.883 1.21h-.05v-5.463h-1.448v11.33zm13.29-11.516c-2.999 0-5.213 2.354-5.213 5.951 0 3.43 2.081 5.75 5.046 5.75 2.864 0 5.212-2.068 5.212-5.968 0-3.363-1.982-5.733-5.046-5.733zm-.068 1.194c2.415 0 3.58 2.353 3.58 4.606 0 2.572-1.298 4.707-3.596 4.707-2.282 0-3.58-2.168-3.58-4.59 0-2.488 1.198-4.723 3.596-4.723zm8.36 10.322v-4.842c0-1.883-.033-3.245-.116-4.673l.05-.017c.566 1.227 1.315 2.521 2.098 3.782l3.564 5.75h1.465V14.798h-1.365v4.741c0 1.765.033 3.143.166 4.657l-.033.016a32.196 32.196 0 0 0-2.015-3.681l-3.597-5.733h-1.582v11.33h1.365zm11.89-3.867c0 2.22-.765 2.808-2.064 2.808-.483 0-.916-.101-1.216-.219l-.217 1.194c.367.151 1.016.269 1.55.269 1.93 0 3.396-.925 3.396-3.934v-7.582h-1.448v7.464zm3.864-7.464v11.33h1.45v-11.33h-1.45zm11.524 9.801c-.582.286-1.482.47-2.364.47-2.732 0-4.314-1.781-4.314-4.555 0-2.976 1.749-4.674 4.38-4.674.933 0 1.716.202 2.265.47l.35-1.193c-.383-.202-1.266-.504-2.665-.504-3.48 0-5.862 2.404-5.862 5.951 0 3.716 2.382 5.733 5.546 5.733 1.365 0 2.431-.269 2.964-.538l-.3-1.16zm-2.381-10.457l1.715-1.916h-1.199l-1.049 1.177h-.033l-1.066-1.177h-1.216l1.732 1.916h1.116zm4.496 11.987h1.45v-4.32l1.065-1.245 3.697 5.565h1.715l-4.38-6.523 4.064-4.808h-1.799l-3.43 4.253c-.284.37-.583.773-.883 1.21h-.05v-5.463h-1.449v11.33zm9.027-11.331v11.33h1.448v-11.33h-1.448zm6.944 10.776c.6.404 1.782.723 2.864.723 2.648 0 3.93-1.513 3.93-3.261 0-1.665-.966-2.59-2.864-3.33-1.549-.604-2.232-1.125-2.232-2.184 0-.774.583-1.698 2.115-1.698 1.016 0 1.766.336 2.132.537l.4-1.193c-.5-.286-1.333-.555-2.482-.555-2.181 0-3.63 1.311-3.63 3.076 0 1.598 1.132 2.556 2.964 3.211 1.516.589 2.115 1.194 2.115 2.253 0 1.143-.866 1.933-2.348 1.933-1 0-1.948-.336-2.598-.74l-.366 1.228zm8.776.555h1.449v-4.54c.333.085.733.102 1.166.102 1.415 0 2.664-.42 3.43-1.244.566-.589.866-1.396.866-2.421 0-1.009-.366-1.833-.983-2.37-.666-.606-1.715-.942-3.147-.942-1.166 0-2.082.1-2.78.219v11.196zm1.449-10.138c.25-.067.733-.117 1.365-.117 1.6 0 2.648.723 2.648 2.219 0 1.564-1.066 2.42-2.814 2.42-.483 0-.883-.033-1.2-.117v-4.405zm11.957-1.378c-2.998 0-5.213 2.354-5.213 5.951 0 3.43 2.082 5.75 5.046 5.75 2.865 0 5.213-2.068 5.213-5.968 0-3.363-1.982-5.733-5.046-5.733zm-.067 1.194c2.415 0 3.58 2.353 3.58 4.606 0 2.572-1.298 4.707-3.596 4.707-2.282 0-3.58-2.168-3.58-4.59 0-2.488 1.198-4.723 3.596-4.723zm6.995 10.322h1.449v-4.91h1.365c1.316.051 1.915.64 2.248 2.203.317 1.413.567 2.387.75 2.707h1.498c-.233-.437-.5-1.53-.866-3.11-.266-1.177-.782-1.984-1.648-2.287v-.05c1.182-.403 2.115-1.395 2.115-2.892 0-.874-.317-1.647-.883-2.151-.7-.64-1.699-.925-3.247-.925-1 0-2.049.084-2.781.235v11.18zm1.449-10.154c.233-.068.732-.135 1.432-.135 1.532.017 2.58.656 2.58 2.119 0 1.294-.982 2.151-2.53 2.151h-1.482v-4.135zm9.792 10.154h1.465V16.042h3.43v-1.244h-8.31v1.244h3.415v10.087zm9.11-.555c.599.404 1.781.723 2.864.723 2.647 0 3.93-1.513 3.93-3.261 0-1.665-.966-2.59-2.864-3.33-1.55-.604-2.232-1.125-2.232-2.184 0-.774.583-1.698 2.115-1.698 1.016 0 1.765.336 2.131.537l.4-1.193c-.5-.286-1.332-.555-2.48-.555-2.183 0-3.632 1.311-3.632 3.076 0 1.598 1.133 2.556 2.965 3.211 1.515.589 2.115 1.194 2.115 2.253 0 1.143-.866 1.933-2.349 1.933-.999 0-1.948-.336-2.597-.74l-.367 1.228zm8.776.555h1.448v-4.91h1.366c1.315.051 1.915.64 2.248 2.203.316 1.413.566 2.387.75 2.707h1.498c-.233-.437-.5-1.53-.866-3.11-.266-1.177-.782-1.984-1.648-2.287v-.05c1.182-.403 2.115-1.395 2.115-2.892 0-.874-.317-1.647-.883-2.151-.7-.64-1.699-.925-3.247-.925-1 0-2.049.084-2.781.235v11.18zm1.448-10.154c.234-.068.733-.135 1.432-.135 1.533.017 2.582.656 2.582 2.119 0 1.294-.983 2.151-2.531 2.151h-1.483v-4.135zm7.511 10.12c.483.068 1.249.135 2.248.135 1.832 0 3.098-.336 3.88-1.06.567-.554.95-1.294.95-2.269 0-1.681-1.25-2.572-2.315-2.841v-.034c1.182-.437 1.898-1.395 1.898-2.488 0-.89-.35-1.563-.932-2-.7-.572-1.632-.824-3.081-.824-1.016 0-2.015.1-2.648.235v11.146zm1.449-10.154c.233-.05.616-.1 1.282-.1 1.466 0 2.465.52 2.465 1.848 0 1.093-.9 1.9-2.432 1.9h-1.315v-3.648zm0 4.758h1.199c1.582 0 2.897.639 2.897 2.185 0 1.648-1.382 2.202-2.88 2.202-.517 0-.933-.016-1.216-.067V20.7zm7.577-5.901v11.33h1.449v-11.33h-1.449zm6.278 7.464c0 2.22-.766 2.808-2.065 2.808-.483 0-.916-.101-1.215-.219l-.217 1.194c.366.151 1.016.269 1.549.269 1.931 0 3.397-.925 3.397-3.934v-7.582h-1.449v7.464zm9.676-2.656h-4.363v-3.58h4.613v-1.228h-6.062v11.33h6.312v-1.226h-4.863v-4.086h4.363v-1.21zM137.63 45.278h8.193v-1.227h-6.278V44l6.195-9.163v-.89h-7.577v1.226h5.695v.05l-6.228 9.197v.857zm15.77-3.564l1.2 3.564h1.548l-3.83-11.33h-1.749l-3.813 11.33h1.499l1.165-3.564h3.98zm-3.68-1.143l1.1-3.278c.216-.69.399-1.379.565-2.051h.034c.166.655.333 1.328.583 2.067l1.099 3.262h-3.38zm16.154-6.809c-2.998 0-5.212 2.354-5.212 5.952 0 3.43 2.081 5.749 5.045 5.749 2.865 0 5.213-2.068 5.213-5.968 0-3.362-1.982-5.733-5.046-5.733zm-.067 1.194c2.415 0 3.58 2.353 3.58 4.606 0 2.572-1.298 4.707-3.596 4.707-2.282 0-3.58-2.168-3.58-4.589 0-2.488 1.198-4.724 3.596-4.724zm6.995 10.322h6.245v-1.227h-4.796V33.947h-1.45v11.331zm7.86-11.33v11.33h1.449v-11.33h-1.449zm13.722 11.33h1.416l-.7-11.33h-1.848l-1.999 5.48c-.5 1.429-.899 2.673-1.182 3.816h-.05c-.283-1.177-.666-2.42-1.133-3.816l-1.915-5.48h-1.848l-.783 11.33h1.382l.3-4.858c.1-1.698.183-3.598.217-5.01h.033c.316 1.345.766 2.807 1.299 4.404l1.815 5.397h1.1l1.981-5.497a67.983 67.983 0 0 0 1.416-4.304h.05c-.017 1.412.083 3.312.166 4.892l.283 4.976zm3.647 0h1.45v-4.539c.332.084.732.1 1.165.1 1.415 0 2.664-.42 3.43-1.243.567-.588.866-1.396.866-2.421 0-1.009-.366-1.833-.982-2.37-.666-.606-1.716-.942-3.148-.942-1.166 0-2.081.101-2.78.219v11.196zm1.45-10.137c.249-.067.732-.118 1.365-.118 1.598 0 2.647.723 2.647 2.22 0 1.563-1.065 2.42-2.814 2.42-.483 0-.882-.033-1.199-.118v-4.404zm7.41-1.194v11.331h1.449v-11.33h-1.45zm6.278 7.465c0 2.219-.766 2.807-2.065 2.807-.483 0-.916-.101-1.216-.219l-.216 1.194c.366.151 1.016.269 1.549.269 1.931 0 3.397-.924 3.397-3.934v-7.582h-1.449v7.465zm3.297 3.311c.6.404 1.782.723 2.865.723 2.648 0 3.93-1.513 3.93-3.261 0-1.665-.966-2.59-2.864-3.329-1.55-.605-2.232-1.126-2.232-2.185 0-.774.583-1.698 2.115-1.698 1.016 0 1.765.336 2.132.538l.4-1.194c-.5-.286-1.333-.555-2.482-.555-2.182 0-3.63 1.312-3.63 3.077 0 1.597 1.132 2.555 2.964 3.21 1.515.59 2.115 1.194 2.115 2.253 0 1.144-.866 1.934-2.348 1.934-1 0-1.949-.336-2.598-.74l-.367 1.227zm8.777.555h1.449v-4.32l1.065-1.244 3.697 5.564h1.715l-4.38-6.523 4.064-4.808h-1.799l-3.43 4.253c-.283.37-.583.774-.883 1.21h-.05v-5.463h-1.448v11.331zm14.838-6.523h-4.363v-3.58h4.613v-1.228h-6.062v11.331h6.312v-1.227h-4.863v-4.085h4.363v-1.21zm5.912-4.808v11.331h1.449v-11.33h-1.45zm7.51 11.331h1.45v-5.127h4.246v-1.21h-4.247v-3.767h4.596v-1.227h-6.044v11.331zm13.923-6.523h-4.364v-3.58h4.613v-1.228h-6.061v11.331h6.311v-1.227h-4.863v-4.085h4.364v-1.21zm2.381-4.808v11.331h1.449v-11.33h-1.449zm7.51 11.298c.733.084 1.6.134 2.632.134 2.181 0 3.913-.572 4.963-1.63 1.049-1.043 1.615-2.556 1.615-4.405 0-1.833-.583-3.144-1.582-4.069-.983-.924-2.465-1.412-4.546-1.412-1.15 0-2.199.101-3.081.236v11.146zm1.45-10.07c.383-.085.949-.152 1.698-.152 3.064 0 4.563 1.698 4.546 4.371 0 3.06-1.682 4.808-4.78 4.808-.565 0-1.098-.017-1.464-.084v-8.944zm9.642-1.228v11.331h1.449v-11.33h-1.45zm3.414 10.776c.6.404 1.782.723 2.864.723 2.648 0 3.93-1.513 3.93-3.261 0-1.665-.966-2.59-2.864-3.329-1.55-.605-2.232-1.126-2.232-2.185 0-.774.583-1.698 2.115-1.698 1.016 0 1.766.336 2.132.538l.4-1.194c-.5-.286-1.333-.555-2.482-.555-2.181 0-3.63 1.312-3.63 3.077 0 1.597 1.132 2.555 2.964 3.21 1.515.59 2.115 1.194 2.115 2.253 0 1.144-.866 1.934-2.348 1.934-1 0-1.949-.336-2.598-.74l-.366 1.227zm16.32-.975c-.583.286-1.482.471-2.365.471-2.731 0-4.313-1.782-4.313-4.556 0-2.976 1.748-4.674 4.38-4.674.932 0 1.715.202 2.264.471l.35-1.194c-.383-.201-1.266-.504-2.664-.504-3.48 0-5.862 2.404-5.862 5.952 0 3.715 2.381 5.732 5.545 5.732 1.366 0 2.432-.269 2.965-.538l-.3-1.16zm2.115-9.8v11.33h1.449v-11.33h-1.45zm3.98 11.33h1.449v-4.539c.333.084.732.1 1.165.1 1.416 0 2.665-.42 3.43-1.243.567-.588.867-1.396.867-2.421 0-1.009-.367-1.833-.983-2.37-.666-.606-1.715-.942-3.147-.942-1.166 0-2.082.101-2.781.219v11.196zm1.449-10.137c.25-.067.732-.118 1.365-.118 1.599 0 2.648.723 2.648 2.22 0 1.563-1.066 2.42-2.815 2.42-.483 0-.882-.033-1.198-.118v-4.404zm7.41 10.137h6.245v-1.227h-4.796V33.947h-1.449v11.331zm7.86-11.33v11.33h1.45v-11.33h-1.45zm5.346 11.33v-4.842c0-1.882-.033-3.244-.116-4.673l.05-.017c.566 1.227 1.315 2.522 2.098 3.782l3.564 5.75h1.465v-11.33h-1.366v4.74c0 1.765.034 3.144.167 4.657l-.033.016a32.196 32.196 0 0 0-2.015-3.681l-3.597-5.733h-1.582v11.331h1.365zm15.404-6.523h-4.363v-3.58h4.613v-1.228h-6.062v11.331h6.312v-1.227h-4.863v-4.085h4.363v-1.21z"/>
        <path stroke="#FFF" stroke-width=".709" d="M137.38 53.55h336.475"/>
        <path fill="#CDCDCD" d="M137.63 73.652h1.449v-5.127h4.246v-1.211h-4.246v-3.766h4.596v-1.227h-6.045v11.33zm13.922-6.523h-4.363v-3.58h4.613V62.32h-6.062v11.33h6.312v-1.226h-4.863v-4.086h4.363v-1.21zm2.382 6.49c.732.083 1.598.134 2.631.134 2.181 0 3.913-.572 4.962-1.63 1.05-1.043 1.616-2.556 1.616-4.406 0-1.832-.583-3.143-1.582-4.068-.983-.925-2.465-1.412-4.547-1.412-1.149 0-2.198.1-3.08.235v11.146zm1.448-10.07c.383-.085.95-.152 1.699-.152 3.064 0 4.563 1.698 4.546 4.371 0 3.06-1.682 4.808-4.78 4.808-.565 0-1.098-.017-1.465-.084v-8.944zm15.455 3.58h-4.363v-3.58h4.613V62.32h-6.062v11.33h6.311v-1.226h-4.862v-4.086h4.363v-1.21zm2.381 6.523h1.45v-4.909h1.365c1.315.05 1.915.639 2.248 2.202.316 1.413.566 2.387.75 2.707h1.498c-.233-.437-.5-1.53-.866-3.11-.266-1.177-.783-1.984-1.649-2.287v-.05c1.183-.403 2.115-1.395 2.115-2.892 0-.874-.316-1.647-.882-2.151-.7-.64-1.699-.925-3.248-.925-.999 0-2.048.084-2.78.235v11.18zm1.45-10.154c.232-.068.732-.135 1.431-.135 1.532.017 2.581.656 2.581 2.119 0 1.294-.982 2.151-2.53 2.151h-1.483v-4.135zm13.388 6.59l1.2 3.564h1.548l-3.83-11.331h-1.749l-3.814 11.33h1.5l1.165-3.563h3.98zm-3.68-1.143l1.099-3.278c.216-.69.4-1.379.566-2.051h.033c.167.655.334 1.328.583 2.067l1.1 3.262h-3.381zm8.926 4.707h1.466V63.565h3.43v-1.244h-8.31v1.244h3.414v10.087zm6.145-11.331v11.33h1.45v-11.33h-1.45zm8.527-.185c-2.998 0-5.213 2.354-5.213 5.951 0 3.43 2.082 5.75 5.046 5.75 2.865 0 5.213-2.068 5.213-5.968 0-3.363-1.982-5.733-5.046-5.733zm-.067 1.194c2.415 0 3.58 2.353 3.58 4.606 0 2.572-1.298 4.707-3.596 4.707-2.282 0-3.581-2.168-3.581-4.59 0-2.487 1.2-4.723 3.597-4.723zm8.36 10.322V68.81c0-1.883-.033-3.244-.116-4.673l.05-.017c.566 1.227 1.315 2.521 2.098 3.782l3.564 5.75h1.465V62.32h-1.366v4.741c0 1.765.034 3.144.167 4.657l-.033.016a32.17 32.17 0 0 0-2.015-3.681l-3.598-5.733h-1.581v11.33h1.365zm13.123 0h1.449v-5.127h4.246v-1.211h-4.246v-3.766h4.596v-1.227h-6.045v11.33zm12.656-11.516c-2.997 0-5.212 2.354-5.212 5.951 0 3.43 2.082 5.75 5.046 5.75 2.864 0 5.212-2.068 5.212-5.968 0-3.363-1.982-5.733-5.046-5.733zm-.066 1.194c2.415 0 3.58 2.353 3.58 4.606 0 2.572-1.299 4.707-3.597 4.707-2.281 0-3.58-2.168-3.58-4.59 0-2.487 1.199-4.723 3.597-4.723zm6.994 10.322h1.45v-4.909h1.365c1.315.05 1.915.639 2.248 2.202.316 1.413.566 2.387.749 2.707h1.499c-.233-.437-.5-1.53-.866-3.11-.266-1.177-.783-1.984-1.649-2.287v-.05c1.183-.403 2.115-1.395 2.115-2.892 0-.874-.316-1.647-.882-2.151-.7-.64-1.7-.925-3.248-.925-.999 0-2.048.084-2.78.235v11.18zm1.45-10.154c.232-.068.732-.135 1.431-.135 1.532.017 2.581.656 2.581 2.119 0 1.294-.982 2.151-2.53 2.151h-1.483v-4.135zm16.852 3.631h-4.363v-3.58h4.613V62.32h-6.062v11.33h6.312v-1.226h-4.863v-4.086h4.363v-1.21zm12.057 6.96a47.588 47.588 0 0 1-3.28-.723V73.3c1.865-.656 3.197-2.522 3.197-5.43 0-3.346-1.982-5.733-5.03-5.733-3.03 0-5.229 2.337-5.229 5.968 0 3.648 2.282 5.632 4.946 5.733.217 0 .45.084.683.168 1.3.454 2.781.908 4.297 1.311l.416-1.227zm-5.23-1.446c-2.264 0-3.58-2.168-3.563-4.572-.016-2.455 1.183-4.741 3.63-4.741 2.382 0 3.548 2.337 3.548 4.606 0 2.589-1.3 4.707-3.614 4.707zm7.012-10.322v6.674c0 3.514 1.732 4.842 4.03 4.842 2.431 0 4.247-1.43 4.247-4.91v-6.606h-1.466v6.708c0 2.505-1.066 3.614-2.731 3.614-1.499 0-2.614-1.076-2.614-3.614V62.32h-1.466zm16.603 4.808h-4.363v-3.58h4.613V62.32h-6.062v11.33h6.312v-1.226h-4.863v-4.086h4.363v-1.21zm1.816 5.968c.6.404 1.782.723 2.864.723 2.648 0 3.93-1.513 3.93-3.261 0-1.665-.966-2.59-2.864-3.33-1.549-.604-2.232-1.125-2.232-2.184 0-.774.583-1.698 2.115-1.698 1.016 0 1.766.336 2.132.538l.4-1.194c-.5-.286-1.333-.555-2.482-.555-2.181 0-3.63 1.311-3.63 3.077 0 1.597 1.132 2.555 2.964 3.21 1.516.589 2.115 1.194 2.115 2.253 0 1.143-.866 1.934-2.348 1.934-1 0-1.949-.336-2.598-.74l-.366 1.227zm10.907.555h1.466V63.565h3.43v-1.244h-8.31v1.244h3.414v10.087zm6.146 0h1.448v-4.909h1.366c1.316.05 1.915.639 2.248 2.202.316 1.413.566 2.387.75 2.707h1.498c-.233-.437-.5-1.53-.866-3.11-.266-1.177-.782-1.984-1.648-2.287v-.05c1.182-.403 2.115-1.395 2.115-2.892 0-.874-.317-1.647-.883-2.151-.7-.64-1.699-.925-3.247-.925-1 0-2.049.084-2.781.235v11.18zm1.448-10.154c.234-.068.733-.135 1.433-.135 1.532.017 2.58.656 2.58 2.119 0 1.294-.982 2.151-2.53 2.151h-1.483v-4.135zm7.511-1.177v11.33h1.449v-11.33h-1.449zm9.775 7.767l1.2 3.564h1.548l-3.83-11.331h-1.749l-3.813 11.33h1.498l1.166-3.563h3.98zm-3.68-1.143l1.1-3.278c.216-.69.399-1.379.565-2.051h.034c.166.655.333 1.328.582 2.067l1.1 3.262h-3.38zm9.442 4.707V68.81c0-1.883-.033-3.244-.116-4.673l.05-.017c.566 1.227 1.315 2.521 2.098 3.782l3.564 5.75h1.466V62.32h-1.366v4.741c0 1.765.033 3.144.166 4.657l-.033.016a32.17 32.17 0 0 0-2.015-3.681L341.3 62.32h-1.582v11.33h1.365zm12.557-.555c.6.404 1.782.723 2.864.723 2.648 0 3.93-1.513 3.93-3.261 0-1.665-.965-2.59-2.864-3.33-1.549-.604-2.231-1.125-2.231-2.184 0-.774.583-1.698 2.115-1.698 1.015 0 1.765.336 2.131.538l.4-1.194c-.5-.286-1.332-.555-2.481-.555-2.182 0-3.63 1.311-3.63 3.077 0 1.597 1.132 2.555 2.964 3.21 1.515.589 2.115 1.194 2.115 2.253 0 1.143-.866 1.934-2.349 1.934-.999 0-1.948-.336-2.598-.74l-.366 1.227zm8.776.555h1.45v-4.54c.332.085.732.102 1.165.102 1.415 0 2.664-.42 3.43-1.244.567-.589.866-1.396.866-2.421 0-1.009-.366-1.833-.982-2.37-.666-.606-1.716-.942-3.148-.942-1.166 0-2.081.1-2.78.219v11.196zm1.45-10.137c.249-.068.732-.118 1.365-.118 1.598 0 2.647.723 2.647 2.219 0 1.564-1.065 2.42-2.814 2.42-.483 0-.882-.033-1.199-.117v-4.404zm11.956-1.379c-2.997 0-5.212 2.354-5.212 5.951 0 3.43 2.081 5.75 5.046 5.75 2.864 0 5.212-2.068 5.212-5.968 0-3.363-1.982-5.733-5.046-5.733zm-.067 1.194c2.415 0 3.581 2.353 3.581 4.606 0 2.572-1.299 4.707-3.597 4.707-2.282 0-3.58-2.168-3.58-4.59 0-2.487 1.199-4.723 3.596-4.723zm6.995 10.322h1.449v-4.909h1.365c1.316.05 1.915.639 2.248 2.202.317 1.413.567 2.387.75 2.707h1.499c-.233-.437-.5-1.53-.866-3.11-.267-1.177-.783-1.984-1.649-2.287v-.05c1.182-.403 2.115-1.395 2.115-2.892 0-.874-.317-1.647-.882-2.151-.7-.64-1.7-.925-3.248-.925-1 0-2.048.084-2.781.235v11.18zm1.449-10.154c.233-.068.733-.135 1.432-.135 1.532.017 2.581.656 2.581 2.119 0 1.294-.982 2.151-2.531 2.151h-1.482v-4.135zm9.792 10.154h1.466V63.565h3.43v-1.244h-8.31v1.244h3.414v10.087zm14.222-11.516c-2.998 0-5.212 2.354-5.212 5.951 0 3.43 2.081 5.75 5.046 5.75 2.864 0 5.212-2.068 5.212-5.968 0-3.363-1.982-5.733-5.046-5.733zm-.067 1.194c2.415 0 3.581 2.353 3.581 4.606 0 2.572-1.299 4.707-3.597 4.707-2.282 0-3.58-2.168-3.58-4.59 0-2.487 1.199-4.723 3.596-4.723zm6.995 10.322h1.449v-5.127h4.246v-1.211h-4.246v-3.766h4.596v-1.227h-6.045v11.33zm11.074-.555c.6.404 1.782.723 2.865.723 2.647 0 3.93-1.513 3.93-3.261 0-1.665-.966-2.59-2.864-3.33-1.55-.604-2.232-1.125-2.232-2.184 0-.774.583-1.698 2.115-1.698 1.016 0 1.765.336 2.132.538l.4-1.194c-.5-.286-1.333-.555-2.482-.555-2.182 0-3.63 1.311-3.63 3.077 0 1.597 1.132 2.555 2.964 3.21 1.515.589 2.115 1.194 2.115 2.253 0 1.143-.866 1.934-2.348 1.934-1 0-1.949-.336-2.598-.74l-.367 1.227zm14.588-5.968h-4.363v-3.58h4.613V62.32h-6.061v11.33h6.311v-1.226h-4.863v-4.086h4.363v-1.21zm2.382 6.523h1.449v-4.909H446c1.315.05 1.915.639 2.247 2.202.317 1.413.567 2.387.75 2.707h1.499c-.233-.437-.5-1.53-.866-3.11-.267-1.177-.783-1.984-1.649-2.287v-.05c1.183-.403 2.115-1.395 2.115-2.892 0-.874-.316-1.647-.882-2.151-.7-.64-1.7-.925-3.248-.925-1 0-2.048.084-2.78.235v11.18zm1.449-10.154c.233-.068.733-.135 1.432-.135 1.532.017 2.581.656 2.581 2.119 0 1.294-.982 2.151-2.53 2.151h-1.483v-4.135zm7.51 10.12c.483.068 1.25.135 2.249.135 1.832 0 3.097-.336 3.88-1.06.566-.554.95-1.294.95-2.269 0-1.681-1.25-2.572-2.316-2.841v-.034c1.183-.437 1.899-1.395 1.899-2.488 0-.89-.35-1.563-.933-2-.7-.572-1.632-.824-3.08-.824-1.017 0-2.016.1-2.648.235v11.146zm1.45-10.154c.233-.05.615-.1 1.282-.1 1.465 0 2.464.52 2.464 1.849 0 1.092-.899 1.9-2.431 1.9h-1.316v-3.649zm0 4.758h1.198c1.582 0 2.898.639 2.898 2.185 0 1.648-1.382 2.203-2.88 2.203-.517 0-.934-.017-1.217-.068v-4.32zm7.577-5.901v11.33h1.449v-11.33h-1.45zm9.775 7.767l1.2 3.564h1.548l-3.83-11.331h-1.75l-3.813 11.33h1.5l1.165-3.563h3.98zm-3.68-1.143l1.099-3.278c.216-.69.4-1.379.566-2.051h.033c.167.655.333 1.328.583 2.067l1.1 3.262h-3.381zM137.63 92.801h1.449v-5.127h4.246v-1.21h-4.246v-3.767h4.596V81.47h-6.045v11.331zm12.657-11.516c-2.998 0-5.213 2.354-5.213 5.952 0 3.43 2.082 5.749 5.046 5.749 2.864 0 5.212-2.068 5.212-5.968 0-3.362-1.981-5.733-5.045-5.733zm-.067 1.194c2.415 0 3.58 2.353 3.58 4.606 0 2.572-1.299 4.708-3.597 4.708-2.281 0-3.58-2.17-3.58-4.59 0-2.488 1.199-4.724 3.597-4.724zm6.994 10.322h1.45v-4.909h1.365c1.315.05 1.915.639 2.248 2.202.316 1.413.566 2.388.75 2.707h1.498c-.233-.437-.5-1.53-.866-3.11-.266-1.177-.783-1.984-1.649-2.286v-.05c1.183-.404 2.115-1.396 2.115-2.892 0-.874-.316-1.648-.882-2.152-.7-.64-1.699-.925-3.248-.925-.999 0-2.048.084-2.78.236v11.18zm1.45-10.154c.232-.067.732-.134 1.431-.134 1.532.016 2.581.655 2.581 2.118 0 1.294-.982 2.152-2.53 2.152h-1.483v-4.136zm12.489 10.154h1.465V82.714h3.43V81.47h-8.31v1.244h3.415v10.087zm6.145-11.33V92.8h1.449V87.49h5.429V92.8h1.465v-11.33h-1.465v4.74h-5.429v-4.74h-1.449zm16.67 4.807h-4.363v-3.58h4.613V81.47h-6.062v11.331h6.312v-1.227h-4.863v-4.085h4.363v-1.21zm10.458-4.993c-2.997 0-5.212 2.354-5.212 5.952 0 3.43 2.082 5.749 5.046 5.749 2.864 0 5.212-2.068 5.212-5.968 0-3.362-1.982-5.733-5.046-5.733zm-.066 1.194c2.415 0 3.58 2.353 3.58 4.606 0 2.572-1.299 4.708-3.597 4.708-2.281 0-3.58-2.17-3.58-4.59 0-2.488 1.199-4.724 3.597-4.724zm6.994 10.322h6.245v-1.227h-4.796V81.47h-1.449v11.331zm10.425 0v-4.825l3.764-6.506h-1.649l-1.615 3.127c-.433.858-.816 1.597-1.133 2.337h-.033c-.35-.79-.683-1.48-1.116-2.337l-1.582-3.127h-1.649l3.548 6.523v4.808h1.465zm14.622 0h1.415l-.7-11.33h-1.848l-1.998 5.48c-.5 1.429-.9 2.673-1.183 3.816h-.05c-.283-1.177-.666-2.42-1.132-3.816l-1.915-5.48h-1.849l-.782 11.33h1.382l.3-4.858c.1-1.698.183-3.598.216-5.01h.033c.317 1.345.766 2.807 1.3 4.404l1.815 5.397h1.099l1.982-5.497a68.054 68.054 0 0 0 1.415-4.304h.05c-.017 1.412.083 3.312.167 4.892l.283 4.976zm3.647 0h1.449v-4.539c.333.084.732.1 1.165.1 1.416 0 2.665-.42 3.43-1.243.567-.588.867-1.395.867-2.421 0-1.009-.367-1.833-.983-2.37-.666-.606-1.715-.942-3.147-.942-1.166 0-2.082.101-2.781.219V92.8zm1.449-10.137c.25-.067.732-.118 1.365-.118 1.599 0 2.648.723 2.648 2.22 0 1.563-1.066 2.42-2.814 2.42-.483 0-.883-.033-1.2-.118v-4.404zm7.41-1.194v11.331h1.45v-11.33h-1.45zm11.524 9.801c-.583.286-1.482.471-2.364.471-2.732 0-4.314-1.782-4.314-4.556 0-2.976 1.749-4.673 4.38-4.673.933 0 1.715.201 2.265.47l.35-1.194c-.383-.201-1.266-.504-2.665-.504-3.48 0-5.862 2.404-5.862 5.952 0 3.715 2.382 5.732 5.546 5.732 1.365 0 2.431-.269 2.964-.538l-.3-1.16zm11.441-2.034l1.199 3.564h1.549l-3.83-11.33h-1.75l-3.813 11.33h1.5l1.165-3.564h3.98zm-3.68-1.143l1.099-3.278c.216-.69.4-1.379.566-2.051h.033c.167.655.333 1.328.583 2.067l1.1 3.262h-3.381zm9.442 4.707V87.96c0-1.882-.033-3.244-.116-4.673l.05-.017c.566 1.227 1.315 2.522 2.098 3.782l3.564 5.75h1.465v-11.33h-1.366v4.74c0 1.765.034 3.144.167 4.657l-.033.016a32.196 32.196 0 0 0-2.015-3.681l-3.597-5.733h-1.582v11.331h1.365zm9.592-.033c.733.084 1.6.134 2.632.134 2.181 0 3.913-.572 4.962-1.63 1.05-1.043 1.616-2.556 1.616-4.405 0-1.833-.583-3.144-1.582-4.069-.983-.924-2.465-1.412-4.547-1.412-1.149 0-2.198.101-3.08.236v11.146zm1.45-10.07c.382-.085.948-.152 1.698-.152 3.064 0 4.563 1.698 4.546 4.371 0 3.06-1.682 4.808-4.78 4.808-.565 0-1.099-.017-1.465-.084v-8.944zM301.847 92.8h1.449v-5.127h4.246v-1.21h-4.246v-3.767h4.596V81.47h-6.045v11.331zm13.922-6.523h-4.363v-3.58h4.613V81.47h-6.062v11.331h6.312v-1.227h-4.863v-4.085h4.363v-1.21zm2.382-4.808v11.331h1.449v-11.33h-1.45zm7.51 11.298a23.15 23.15 0 0 0 2.632.134c2.181 0 3.913-.572 4.962-1.63 1.05-1.043 1.616-2.556 1.616-4.405 0-1.833-.583-3.144-1.583-4.069-.982-.924-2.464-1.412-4.546-1.412-1.149 0-2.198.101-3.08.236v11.146zm1.45-10.07c.382-.085.948-.152 1.698-.152 3.064 0 4.563 1.698 4.546 4.371 0 3.06-1.682 4.808-4.78 4.808-.566 0-1.099-.017-1.465-.084v-8.944zm9.642-1.228v11.331h1.448v-11.33h-1.448zm3.413 10.776c.6.404 1.782.723 2.865.723 2.647 0 3.93-1.513 3.93-3.261 0-1.665-.966-2.589-2.865-3.329-1.548-.605-2.231-1.126-2.231-2.185 0-.774.583-1.698 2.115-1.698 1.016 0 1.765.336 2.131.538l.4-1.194c-.5-.286-1.332-.555-2.481-.555-2.182 0-3.63 1.312-3.63 3.077 0 1.597 1.132 2.555 2.964 3.21 1.515.59 2.115 1.194 2.115 2.253 0 1.144-.866 1.934-2.349 1.934-.999 0-1.948-.336-2.597-.74l-.367 1.227zm16.32-.975c-.583.286-1.482.471-2.364.471-2.732 0-4.314-1.782-4.314-4.556 0-2.976 1.749-4.673 4.38-4.673.933 0 1.715.201 2.265.47l.35-1.194c-.383-.201-1.266-.504-2.665-.504-3.48 0-5.862 2.404-5.862 5.952 0 3.715 2.382 5.732 5.546 5.732 1.365 0 2.431-.269 2.964-.538l-.3-1.16zm2.115-9.8V92.8h1.45v-11.33h-1.45zm3.98 11.33h1.45v-4.539c.332.084.732.1 1.165.1 1.415 0 2.664-.42 3.43-1.243.567-.588.866-1.395.866-2.421 0-1.009-.366-1.833-.982-2.37-.666-.606-1.716-.942-3.148-.942-1.166 0-2.081.101-2.78.219V92.8zm1.45-10.137c.249-.067.732-.118 1.365-.118 1.598 0 2.647.723 2.647 2.22 0 1.563-1.065 2.42-2.814 2.42-.483 0-.882-.033-1.199-.118v-4.404zm7.41 10.137h6.245v-1.227h-4.796V81.47h-1.449v11.331zm7.86-11.33V92.8h1.449v-11.33h-1.449zm5.346 11.33V87.96c0-1.882-.034-3.244-.117-4.673l.05-.017c.566 1.227 1.316 2.522 2.098 3.782l3.564 5.75h1.466v-11.33h-1.366v4.74c0 1.765.034 3.144.167 4.657l-.034.016a32.178 32.178 0 0 0-2.015-3.681l-3.597-5.733h-1.582v11.331h1.366zm15.404-6.523h-4.363v-3.58h4.613V81.47h-6.062v11.331h6.312v-1.227h-4.863v-4.085h4.363v-1.21zm1.815 5.968c.6.404 1.782.723 2.865.723 2.647 0 3.93-1.513 3.93-3.261 0-1.665-.966-2.589-2.865-3.329-1.548-.605-2.231-1.126-2.231-2.185 0-.774.583-1.698 2.115-1.698 1.016 0 1.765.336 2.131.538l.4-1.194c-.5-.286-1.332-.555-2.481-.555-2.182 0-3.63 1.312-3.63 3.077 0 1.597 1.132 2.555 2.964 3.21 1.515.59 2.115 1.194 2.115 2.253 0 1.144-.866 1.934-2.349 1.934-.999 0-1.948-.336-2.597-.74l-.367 1.227z"/>
        <path fill="#A6A8AB" d="M50.07 122.625C25.576 115.528 1.217 102.318.004 74.022L0 73.824V0h103l-.002 74.126c-.761 28.829-25.65 41.405-50.34 48.503l-1.295.371-1.294-.375z"/>
        <path fill="#EC1D24" d="M5 5h95V74.651c-.586 21.92-16.533 35.495-47.634 44.349C21.907 110.26 5.933 96.017 5 74.471V5z"/>
        <g>
            <path fill="#FEFEFE" d="M31.132 21.664c.375.316.71.648 1.004.991 1.23 1.439 1.828 3.142 1.745 4.946v.005c-.081 1.744-.806 3.555-2.22 5.273-.347.422-.733.836-1.159 1.24-.005 2.773-.91 4.284-2.498 5.14-1.52.82-3.502.855-5.89.859l-1.294.002V15.995l1.05-.206c4.215-.828 8.436-1.133 12.66-.89l.1.01c4.422.612 7.174 2.456 8.828 5.11 1.604 2.575 2.098 5.846 2.059 9.451.031 4.656-.741 8.597-2.73 11.497v.005c-2.052 2.993-5.314 4.823-10.194 5.124l-.076.005H20.881v-2.62h11.636c3.957-.26 6.56-1.687 8.148-4.003l.002.002c1.659-2.422 2.302-5.866 2.273-10.01v-.015c.034-3.15-.364-5.955-1.665-8.044-1.247-2-3.402-3.406-6.936-3.905-3.64-.206-7.284.02-10.932.656v19.336c1.445-.028 2.626-.132 3.384-.54.789-.426 1.206-1.382 1.122-3.353l-.027-.63.471-.414c.512-.448.952-.9 1.323-1.35 1.039-1.262 1.569-2.54 1.624-3.728.05-1.126-.333-2.2-1.119-3.12a6.036 6.036 0 0 0-.7-.693l1.647-2.006z"/>
            <path fill="#A6A8AB" d="M20.742 50.89h29.792V12.968h3.225V50.89h29.914v3.266H53.759v38.021h-3.225V54.156H20.742z"/>
            <path fill="#FEFEFE" d="M74.965 23.67c-.257.216-.491.449-.701.694-.786.92-1.17 1.993-1.119 3.119.056 1.188.586 2.466 1.625 3.728.37.45.81.902 1.322 1.35l.471.414-.027.63c-.083 1.97.333 2.927 1.122 3.352.758.409 1.94.513 3.385.541V18.162a48.894 48.894 0 0 0-4.966-.61 46.846 46.846 0 0 0-5.967-.046c-3.533.499-5.689 1.904-6.936 3.905-1.3 2.089-1.7 4.895-1.665 8.044v.015c-.029 4.144.614 7.588 2.273 10.01l.002-.002c1.588 2.316 4.191 3.743 8.148 4.004h11.637v2.62H71.932l-.076-.006c-4.88-.301-8.142-2.13-10.194-5.124v-.005c-1.989-2.9-2.762-6.84-2.73-11.497-.04-3.604.455-6.876 2.06-9.45 1.653-2.655 4.405-4.5 8.827-5.11l.1-.01a49.287 49.287 0 0 1 6.33.042 51.83 51.83 0 0 1 6.33.847l1.051.206V40.12l-1.294-.002c-2.388-.004-4.37-.04-5.89-.858-1.59-.857-2.493-2.368-2.5-5.141a13.824 13.824 0 0 1-1.158-1.24c-1.414-1.718-2.139-3.53-2.22-5.273V27.6c-.083-1.804.515-3.507 1.745-4.946.294-.343.63-.675 1.004-.991l1.648 2.006zM31.133 65.855c.375.316.71.647 1.004.99 1.23 1.44 1.828 3.142 1.744 4.946v.006c-.08 1.743-.806 3.555-2.22 5.273-.346.421-.732.836-1.158 1.24-.006 2.773-.91 4.284-2.499 5.14-1.52.82-3.502.855-5.89.858l-1.294.002V60.187l1.051-.207a51.82 51.82 0 0 1 6.33-.847 49.394 49.394 0 0 1 6.329-.043l.101.01c4.422.612 7.174 2.456 8.827 5.11 1.605 2.576 2.099 5.847 2.06 9.451.031 4.66-.741 8.602-2.73 11.502-2.052 2.993-5.314 4.822-10.194 5.124l-.076.005H20.881v-2.62h11.637c3.956-.26 6.56-1.687 8.148-4.003 1.66-2.421 2.303-5.865 2.274-10.008v-.015c.035-3.149-.363-5.955-1.665-8.044-1.246-2-3.402-3.406-6.935-3.905a46.883 46.883 0 0 0-5.968.045 49.109 49.109 0 0 0-4.965.612v19.335c1.445-.028 2.627-.132 3.385-.54.788-.426 1.205-1.382 1.121-3.353l-.026-.63.471-.414c.511-.447.952-.9 1.322-1.35 1.039-1.262 1.569-2.54 1.624-3.728.051-1.126-.332-2.2-1.118-3.12a6.068 6.068 0 0 0-.7-.693l1.647-2.006zM74.965 67.86c-.257.217-.491.45-.7.695-.786.92-1.17 1.993-1.12 3.119h.001c.055 1.188.585 2.465 1.624 3.728.37.45.81.902 1.322 1.35l.472.413-.027.63c-.084 1.972.333 2.928 1.122 3.353.758.409 1.94.513 3.384.54V62.355a49.1 49.1 0 0 0-4.965-.612 46.882 46.882 0 0 0-5.967-.045c-3.533.5-5.69 1.904-6.936 3.905-1.301 2.09-1.7 4.895-1.665 8.044v.015c-.03 4.143.614 7.587 2.275 10.008 1.588 2.316 4.19 3.743 8.147 4.003H83.57v2.62H71.932l-.075-.005c-4.88-.302-8.143-2.131-10.195-5.124-1.989-2.9-2.761-6.843-2.73-11.502-.039-3.604.455-6.875 2.06-9.45 1.654-2.655 4.406-4.5 8.828-5.11l.1-.01a49.397 49.397 0 0 1 6.33.042c2.113.15 4.223.434 6.33.847l1.05.207V84.31l-1.293-.002c-2.389-.003-4.371-.038-5.89-.857-1.59-.856-2.494-2.368-2.5-5.141-.426-.405-.812-.82-1.159-1.24-1.414-1.72-2.138-3.53-2.219-5.273v-.006c-.084-1.804.515-3.506 1.745-4.944.293-.344.629-.676 1.004-.992l1.647 2.006z"/>
        </g>
    </g>
</svg>
