<svg xmlns="http://www.w3.org/2000/svg" width="44" height="53" viewBox="0 0 44 53">
    <g fill="none" fill-rule="evenodd">
        <path fill="#A6A8AB" d="M21.389 52.839C10.926 49.78.52 44.089.002 31.896L0 31.81V0h44v31.94c-.326 12.422-10.958 17.842-21.506 20.9l-.552.16-.553-.161z"/>
        <path fill="#EC1D24" d="M2 2h40v29.938C41.753 41.359 35.039 47.194 21.944 51 9.119 47.243 2.393 41.122 2 31.86V2z"/>
        <path fill="#FEFEFE" d="M12.696 9.899c.159.134.3.275.424.421.519.612.771 1.335.736 2.102v.002c-.034.742-.34 1.512-.937 2.242a5.88 5.88 0 0 1-.488.527c-.003 1.179-.384 1.821-1.054 2.185-.642.348-1.478.363-2.485.365h-.546V7.49l.443-.087a21.115 21.115 0 0 1 5.34-.379l.043.005c1.866.26 3.027 1.044 3.724 2.172.677 1.094.885 2.485.869 4.017.013 1.98-.313 3.654-1.152 4.887v.002c-.865 1.272-2.241 2.05-4.3 2.178l-.032.002H8.37v-1.113h4.91c1.669-.11 2.767-.717 3.437-1.702h.001c.7-1.029.971-2.493.959-4.254v-.007c.014-1.338-.154-2.53-.703-3.419-.526-.85-1.435-1.447-2.926-1.66a19.977 19.977 0 0 0-4.612.28v8.218c.61-.012 1.108-.056 1.428-.23.333-.18.509-.587.473-1.424l-.011-.268.199-.176a4.93 4.93 0 0 0 .558-.574c.438-.536.661-1.08.685-1.585a1.892 1.892 0 0 0-.472-1.326 2.552 2.552 0 0 0-.296-.295l.695-.852z"/>
        <path fill="#A6A8AB" d="M8.313 22.322h12.568V6.202h1.361v16.12h12.62v1.388h-12.62v16.162h-1.36V23.71H8.312z"/>
        <path fill="#FEFEFE" d="M31.188 10.751c-.108.092-.207.191-.295.295-.332.391-.494.848-.472 1.326.023.505.247 1.049.685 1.585.156.191.342.383.558.574l.199.176-.012.268c-.035.837.14 1.244.474 1.424.32.174.818.219 1.427.23V8.41a20.48 20.48 0 0 0-2.094-.26c-.842-.06-1.681-.066-2.518-.019-1.49.213-2.4.81-2.926 1.66-.549.888-.717 2.08-.702 3.42v.006c-.012 1.761.259 3.225.958 4.255h.001c.67.984 1.769 1.59 3.438 1.7h4.909v1.114h-4.91l-.031-.002c-2.06-.128-3.435-.906-4.301-2.178v-.002c-.839-1.233-1.165-2.908-1.151-4.887-.017-1.532.191-2.923.868-4.017.698-1.128 1.859-1.912 3.724-2.172l.043-.005a20.63 20.63 0 0 1 2.67.019c.891.063 1.782.184 2.67.36l.444.087V17.744l-.546-.001c-1.008-.002-1.844-.017-2.485-.365-.67-.364-1.052-1.006-1.054-2.185a5.865 5.865 0 0 1-.489-.527c-.597-.73-.902-1.5-.936-2.242v-.002c-.036-.767.217-1.49.736-2.102.124-.146.265-.287.423-.421l.695.852zM12.697 28.683c.158.134.299.275.423.421.519.612.771 1.335.736 2.102v.003c-.034.74-.34 1.51-.937 2.241a5.86 5.86 0 0 1-.488.527c-.002 1.179-.384 1.821-1.054 2.185-.641.348-1.478.364-2.485.365h-.546V26.275l.443-.088a21.714 21.714 0 0 1 2.67-.36c.888-.064 1.779-.07 2.67-.018l.043.004c1.866.26 3.027 1.044 3.725 2.172.676 1.095.885 2.485.868 4.017.014 1.98-.312 3.657-1.151 4.89-.866 1.271-2.242 2.049-4.3 2.177l-.033.002h-4.91v-1.113h4.91c1.67-.11 2.767-.717 3.437-1.702.7-1.029.972-2.493.96-4.254v-.006c.014-1.339-.153-2.532-.703-3.42-.525-.85-1.435-1.447-2.925-1.66a19.638 19.638 0 0 0-2.518.02c-.697.05-1.395.137-2.095.26v8.218c.61-.011 1.109-.056 1.428-.23.333-.18.509-.587.474-1.424l-.012-.268.2-.176c.215-.19.4-.382.557-.574.438-.536.662-1.08.685-1.585a1.891 1.891 0 0 0-.472-1.325 2.577 2.577 0 0 0-.295-.296l.695-.852zM31.188 29.535a2.569 2.569 0 0 0-.295.296c-.332.39-.493.847-.472 1.325.023.505.247 1.048.685 1.585.156.191.342.383.558.574l.199.176-.011.268c-.036.837.14 1.244.473 1.425.32.173.818.218 1.428.23v-8.22c-.7-.122-1.398-.21-2.095-.26-.841-.06-1.68-.066-2.518-.018-1.49.212-2.4.809-2.926 1.66-.548.887-.717 2.08-.702 3.419V32c-.012 1.761.259 3.225.96 4.254.67.985 1.768 1.591 3.437 1.702h4.91v1.113h-4.91l-.032-.002c-2.059-.128-3.435-.906-4.3-2.178-.84-1.232-1.166-2.908-1.152-4.889-.017-1.532.192-2.922.868-4.017.698-1.128 1.86-1.912 3.725-2.172l.042-.004a20.676 20.676 0 0 1 2.67.018c.892.063 1.782.184 2.67.36l.444.088V36.528l-.546-.001c-1.007-.001-1.844-.017-2.485-.365-.67-.364-1.051-1.006-1.054-2.185a5.89 5.89 0 0 1-.489-.527c-.596-.73-.902-1.5-.936-2.241v-.003c-.035-.766.217-1.49.736-2.102a3.67 3.67 0 0 1 .423-.421l.695.852z"/>
    </g>
</svg>
