<svg xmlns="http://www.w3.org/2000/svg" viewBox="0 0 72 64"><defs><style>.cls-1{fill:#fff;}.cls-2{fill:none;}</style></defs><title>kalendar</title><g id="Layer_2" data-name="Layer 2"><g id="Layer_1-2" data-name="Layer 1"><path class="cls-1" d="M61,13.41H51.13V9.21a1.48,1.48,0,1,0-3,0v4.2H23.84V9.21a1.48,1.48,0,0,0-3,0v4.2H11A1.48,1.48,0,0,0,9.5,14.9V61.52A1.48,1.48,0,0,0,11,63H61a1.48,1.48,0,0,0,1.48-1.48V14.9A1.48,1.48,0,0,0,61,13.41ZM59.53,37.29h-8.4v-8.4h8.4Zm-11.37,0H37.48v-8.4H48.16Zm-13.64,0H23.84v-8.4H34.52Zm-13.64,0h-8.4v-8.4h8.4Zm-8.4,3h8.4v8.4h-8.4Zm11.37,0H34.52v8.4H23.84ZM34.52,51.63V60H23.84v-8.4Zm3,0H48.16V60H37.48Zm0-3v-8.4H48.16v8.4Zm13.64-8.4h8.4v8.4h-8.4ZM20.87,16.38v4.2a1.48,1.48,0,0,0,3,0v-4.2H48.16v4.2a1.48,1.48,0,0,0,3,0v-4.2h8.4v9.54H12.47V16.38Zm-8.4,35.25h8.4V60h-8.4ZM51.13,60v-8.4h8.4V60Z"/><rect class="cls-2" width="72" height="64"/></g></g></svg>