<svg xmlns="http://www.w3.org/2000/svg" viewBox="0 0 17.85 18.62"><defs><style>.cls-1{fill:#fff;}</style></defs><title>kalendar-10</title><g id="Layer_2" data-name="Layer 2"><g id="Layer_1-2" data-name="Layer 1"><path class="cls-1" d="M17,7.13H.6a.5.5,0,0,1,0-1H17a.5.5,0,0,1,0,1Z"/><path class="cls-1" d="M17,11H.6a.5.5,0,1,1,0-1H17a.5.5,0,1,1,0,1Z"/><path class="cls-1" d="M17,14.79H.6a.5.5,0,0,1,0-1H17a.5.5,0,0,1,0,1Z"/><path class="cls-1" d="M17,18.62H.6a.5.5,0,0,1,0-1H17a.5.5,0,0,1,0,1Z"/><path class="cls-1" d="M17.35,18.62H.5a.5.5,0,0,1-.5-.5V2.42a.5.5,0,0,1,.5-.5H17.35a.5.5,0,0,1,.5.5v15.7A.5.5,0,0,1,17.35,18.62ZM1,17.62H16.85V2.92H1Z"/><rect class="cls-1" x="13.02" y="6.92" width="1" height="11.58"/><rect class="cls-1" x="8.43" y="6.92" width="1" height="11.58"/><rect class="cls-1" x="3.83" y="6.92" width="1" height="11.58"/><path class="cls-1" d="M4.33,4.83a.5.5,0,0,1-.5-.5V.5a.5.5,0,0,1,1,0V4.33A.5.5,0,0,1,4.33,4.83Z"/><path class="cls-1" d="M13.52,4.83a.5.5,0,0,1-.5-.5V.5a.5.5,0,0,1,1,0V4.33A.5.5,0,0,1,13.52,4.83Z"/></g></g></svg>