<svg xmlns="http://www.w3.org/2000/svg" width="113" height="164" viewBox="0 0 113 164">
    <g fill="none" fill-rule="evenodd">
        <path fill="#A6A8AB" d="M7.001 4.709c0 3.47 2.996 4.043 5.337 4.847 1.554.507 2.838 1.08 2.838 2.711 0 1.724-1.104 2.62-3.424 2.62-2.093 0-4.21-.713-4.21-.713-.337.528-.562 1.24-.54 1.862 0 0 1.891.964 4.863.964 3.693 0 5.653-1.722 5.653-4.802 0-3.008-2.117-3.996-4.212-4.732-2.093-.69-4.03-1.103-4.03-2.872 0-1.677 1.15-2.619 3.535-2.619 1.936 0 3.467.505 3.467.505.429-.46.63-1.171.63-1.837 0 0-1.71-.643-4.413-.643-3.668 0-5.494 1.884-5.494 4.709zm17.497 2.527h-1.644V.39S22.472.23 21.73.23c-.766 0-1.172.16-1.172.16v16.22s.429.16 1.149.16c.81 0 1.148-.16 1.148-.16V9.12h1.644l5.022 7.49s.495.16 1.327.16c.879 0 1.352-.16 1.352-.16l-5.787-8.685L31.523.39c-.337-.069-.765-.16-1.239-.16-.45 0-.855.091-1.148.16l-4.638 6.846zm9.187-2.527c0 3.47 2.995 4.043 5.336 4.847 1.554.507 2.838 1.08 2.838 2.711 0 1.724-1.103 2.62-3.423 2.62-2.094 0-4.21-.713-4.21-.713-.338.528-.563 1.24-.541 1.862 0 0 1.891.964 4.863.964 3.694 0 5.653-1.722 5.653-4.802 0-3.008-2.117-3.996-4.211-4.732-2.094-.69-4.03-1.103-4.03-2.872 0-1.677 1.148-2.619 3.535-2.619 1.936 0 3.467.505 3.467.505.428-.46.63-1.171.63-1.837 0 0-1.711-.643-4.413-.643-3.67 0-5.494 1.884-5.494 4.709zm12.79 0c0 3.47 2.995 4.043 5.336 4.847 1.554.507 2.838 1.08 2.838 2.711 0 1.724-1.103 2.62-3.423 2.62-2.094 0-4.21-.713-4.21-.713-.338.528-.563 1.24-.542 1.862 0 0 1.892.964 4.864.964 3.693 0 5.653-1.722 5.653-4.802 0-3.008-2.117-3.996-4.212-4.732-2.093-.69-4.03-1.103-4.03-2.872 0-1.677 1.15-2.619 3.535-2.619 1.937 0 3.467.505 3.467.505.429-.46.63-1.171.63-1.837 0 0-1.71-.643-4.412-.643-3.67 0-5.495 1.884-5.495 4.709zm17.924 6.249s.134-.321.134-.85c0-.528-.134-.85-.134-.85h-4.683s-.136.322-.136.85c0 .529.136.85.136.85h4.683zm2.994-2.459c0 5.951 2.409 8.501 6.35 8.501 3.94 0 6.35-2.55 6.35-8.5S77.638 0 73.743 0c-3.896 0-6.35 2.595-6.35 8.5zm10.29 0c0 5.079-1.531 6.548-3.94 6.548-2.387 0-3.941-1.47-3.941-6.548 0-5.077 1.554-6.547 3.94-6.547 2.41 0 3.942 1.47 3.942 6.547zM85.7 9.65h5.899a2.66 2.66 0 0 0 .18-.988c0-.368-.068-.689-.18-.92h-5.9V2.136h6.666c.113-.276.179-.596.179-.964s-.066-.69-.18-.943h-8.961V16.61s.382.16 1.125.16c.79 0 1.172-.16 1.172-.16V9.65zm9.682-9.42v16.542h4.999c4.165 0 6.619-2.184 6.619-8.272 0-6.087-2.454-8.27-6.62-8.27h-4.998zm2.297 14.588V2.183h2.545c2.634 0 4.322 1.125 4.322 6.316 0 5.17-1.688 6.318-4.322 6.318h-2.545zM54.93 163.586c-26.87-7.848-53.594-22.453-54.925-53.74l-.005-.22V28h113l-.002 81.96c-.836 31.876-28.14 45.782-55.228 53.63l-1.42.41-1.42-.414z"/>
        <path fill="#EC1D24" d="M5 33h102v76.983c-.629 24.226-17.751 39.23-51.144 49.017C23.153 149.34 6.001 133.598 5 109.784V33z"/>
        <path fill="#FEFEFE" d="M33.176 53.09c.41.349.777.714 1.097 1.091 1.346 1.583 2 3.457 1.909 5.442v.005c-.089 1.919-.881 3.912-2.428 5.802-.38.463-.802.92-1.267 1.364-.006 3.05-.996 4.713-2.733 5.655-1.662.901-3.83.94-6.443.944l-1.414.003V46.855l1.15-.228c4.609-.91 9.225-1.246 13.845-.978l.11.01c4.836.674 7.847 2.703 9.655 5.623 1.755 2.833 2.295 6.431 2.252 10.397.034 5.123-.81 9.458-2.985 12.649v.006c-2.245 3.292-5.812 5.305-11.15 5.636l-.083.006H21.963v-2.882h12.728c4.327-.286 7.174-1.856 8.911-4.404l.003.002c1.814-2.665 2.517-6.454 2.485-11.013v-.017c.038-3.464-.398-6.551-1.82-8.85-1.364-2.2-3.722-3.746-7.586-4.296a51.877 51.877 0 0 0-11.958.723V70.51c1.58-.03 2.873-.145 3.701-.595.863-.467 1.32-1.52 1.228-3.687l-.03-.694.516-.455c.559-.493 1.041-.99 1.446-1.485 1.137-1.389 1.716-2.795 1.776-4.102.056-1.238-.363-2.42-1.223-3.432a6.612 6.612 0 0 0-.766-.763l1.802-2.207z"/>
        <path fill="#A6A8AB" d="M21.812 85.245h32.584v-41.72h3.528v41.72h32.718v3.593H57.924v41.83h-3.528v-41.83H21.812z"/>
        <path fill="#FEFEFE" d="M81.118 55.298a6.678 6.678 0 0 0-.767.763c-.86 1.012-1.279 2.194-1.223 3.432.06 1.307.64 2.713 1.776 4.102.405.495.887.992 1.446 1.485l.516.455-.03.694c-.091 2.167.365 3.22 1.228 3.687.829.45 2.122.565 3.701.595V49.24a53.18 53.18 0 0 0-5.43-.673 50.96 50.96 0 0 0-6.527-.05c-3.865.55-6.222 2.095-7.586 4.297-1.423 2.298-1.859 5.385-1.821 8.849v.017c-.032 4.56.67 8.348 2.485 11.013l.003-.002c1.737 2.548 4.584 4.118 8.911 4.404h12.728v2.882H77.8l-.083-.006c-5.337-.331-8.905-2.344-11.15-5.636v-.006c-2.174-3.19-3.02-7.526-2.985-12.649-.043-3.965.497-7.564 2.252-10.397 1.809-2.92 4.82-4.95 9.655-5.622l.11-.011a53.573 53.573 0 0 1 6.923.047c2.311.164 4.62.477 6.924.931l1.15.228v26.541l-1.416-.003c-2.612-.003-4.78-.043-6.442-.944-1.738-.942-2.727-2.605-2.734-5.656a15.19 15.19 0 0 1-1.267-1.363c-1.547-1.89-2.34-3.883-2.428-5.802v-.005c-.09-1.985.563-3.859 1.909-5.442a9.577 9.577 0 0 1 1.098-1.09l1.802 2.207zM33.177 101.709c.41.347.776.712 1.097 1.09 1.346 1.583 2 3.456 1.909 5.44v.007c-.089 1.918-.882 3.911-2.429 5.801-.379.463-.8.92-1.266 1.364-.007 3.05-.996 4.714-2.733 5.656-1.662.901-3.83.94-6.443.944l-1.415.002v-26.54l1.15-.227a56.386 56.386 0 0 1 6.923-.932 53.69 53.69 0 0 1 6.922-.047l.11.01c4.837.673 7.848 2.702 9.656 5.622 1.754 2.834 2.295 6.432 2.252 10.398.035 5.126-.81 9.464-2.986 12.654-2.244 3.292-5.812 5.305-11.15 5.637l-.082.006H21.964v-2.883h12.728c4.327-.285 7.174-1.855 8.911-4.404 1.816-2.663 2.52-6.452 2.488-11.01v-.017c.038-3.464-.398-6.551-1.821-8.85-1.364-2.2-3.721-3.747-7.586-4.296a51 51 0 0 0-6.527.05c-1.807.13-3.617.355-5.43.673v21.272c1.58-.03 2.873-.146 3.701-.595.863-.467 1.319-1.52 1.227-3.688l-.029-.694.516-.455c.559-.492 1.04-.99 1.446-1.485 1.136-1.388 1.716-2.795 1.776-4.102.056-1.238-.364-2.42-1.223-3.431a6.674 6.674 0 0 0-.766-.764l1.801-2.206zM81.118 103.915c-.28.238-.537.494-.767.765-.859 1.01-1.278 2.192-1.223 3.43.06 1.307.64 2.713 1.776 4.102.406.495.888.993 1.447 1.485l.516.455-.03.694c-.091 2.168.365 3.22 1.228 3.688.828.45 2.12.564 3.7.595V97.857a53.436 53.436 0 0 0-5.43-.673 50.999 50.999 0 0 0-6.527-.05c-3.864.55-6.222 2.095-7.586 4.297-1.422 2.298-1.858 5.385-1.82 8.85v.016c-.033 4.558.67 8.346 2.487 11.01 1.738 2.549 4.585 4.119 8.912 4.405h12.728v2.882H77.8l-.083-.006c-5.338-.332-8.906-2.345-11.15-5.637-2.175-3.19-3.02-7.528-2.985-12.654-.043-3.965.497-7.564 2.252-10.398 1.809-2.92 4.82-4.949 9.655-5.621l.11-.011a53.694 53.694 0 0 1 6.923.047c2.311.164 4.62.477 6.923.932l1.15.227v26.54l-1.415-.002c-2.612-.004-4.781-.043-6.443-.944-1.738-.942-2.727-2.605-2.733-5.656a15.256 15.256 0 0 1-1.268-1.364c-1.546-1.891-2.339-3.883-2.427-5.801v-.006c-.092-1.985.563-3.858 1.908-5.44a9.51 9.51 0 0 1 1.098-1.091l1.802 2.206z"/>
    </g>
</svg>
