<svg xmlns="http://www.w3.org/2000/svg" width="75" height="78" viewBox="0 0 75 78">
    <g fill="#FFF" fill-rule="evenodd">
        <path d="M11.611 50.674c.222-.85-.165-2.654-1.387-3.117-2.088 10.53-7.47 14.936-9.938 16.447v2.353c1.918-.963 8.357-4.914 11.325-15.683M62.404 34.388l-8.688.271c-1.695.276-2.24 1.859-2.325 2.139l11.1-.345c1.032-.056 1.834.258 2.145.835.237.44.16.998-.205 1.49l-9.058 12.235h2.572l8.147-11.004c.841-1.136.98-2.553.365-3.7-.7-1.3-2.23-2.019-4.053-1.921"/>
        <path fill-rule="nonzero" d="M47.79 59.705c-1.219 0-2.21.99-2.21 2.209 0 1.218.991 2.21 2.21 2.21 1.218 0 2.21-.992 2.21-2.21 0-1.219-.992-2.21-2.21-2.21zm0 6.486a4.282 4.282 0 0 1-4.277-4.277 4.282 4.282 0 0 1 4.277-4.277 4.282 4.282 0 0 1 4.277 4.277 4.282 4.282 0 0 1-4.277 4.277zM47.79 71.228c-1.219 0-2.21.991-2.21 2.21 0 1.218.991 2.209 2.21 2.209 1.218 0 2.21-.99 2.21-2.21 0-1.218-.992-2.21-2.21-2.21zm0 6.487a4.282 4.282 0 0 1-4.277-4.277 4.282 4.282 0 0 1 4.277-4.278 4.282 4.282 0 0 1 4.277 4.278 4.282 4.282 0 0 1-4.277 4.277zM57.651 12.7c-.34.396-.674.797-1.004 1.2a17.6 17.6 0 0 0-.086.099h.002a51.658 51.658 0 0 0-3.34 4.529c-2.118 3.25-3.804 6.818-4.627 10.61-1.4-1.92-3.447-3.295-5.635-4.22-2.188-.924-4.529-1.428-6.863-1.868-.711-.134-1.424-.263-2.132-.413-.71-.15-1.415-.321-2.107-.539a14.333 14.333 0 0 1-1.023-.363c-.122-.049-.266-.098-.336-.219-.062-.106-.034-.228.02-.33.142-.27.313-.527.475-.783a25.865 25.865 0 0 1 4.066-4.939 26.508 26.508 0 0 1 2.826-2.33 25.862 25.862 0 0 1 5.455-2.978c5.437-2.155 11.613-2.391 17.2-.658a98.612 98.612 0 0 0-2.89 3.203zm-9.997 21.965c-.85 4.116-1.784 5.92-3.646 8.45-2.691.1-9.59-.028-13.395-3.623-1.45-1.37-2.29-3.143-2.514-5.275-.043-.71.056-1.682.105-2.102l1.33-7.779c.04-.202.091-.402.14-.601.298.124.556.194.75.236.941.272 2.208.547 3.925.802l.097.014c4.056.75 10.064 2.038 12.366 5.411.866 1.27 1.178 2.739.842 4.467zM71.746 18.55l-.566-.82-4.94-7.85V5.674s-1.977.844-3.936 2.361a.643.643 0 0 1-.015-.006v-.006c-2.412-.966-5.779-1.87-9.981-1.87-7.518 0-18.996 5.194-23.337 13.646a4.645 4.645 0 0 1-.168-.391c-.346-1.755-.564-4.942-.686-7.279-.312-1.747-2.106-2.253-2.17-2.27.065 1.795.313 7.609.879 10.202.206.942.56 1.652.972 2.2-2.065 3.341-5.244 5.67-8.506 7.396l-7.933-6.104a2.42 2.42 0 0 1 .092-3.375c.077-.078 7.731-7.788 10.618-10.395 1.043-.942 2.94-1.776 4.856-1.021.761.3 1.379.592 1.924.85 1.269.602 2.272 1.077 3.853 1.077 2.193 0 4.162-1.596 4.79-3.882a5.302 5.302 0 0 0-3.704-6.51 5.266 5.266 0 0 0-4.022.504s-2.295 1.33-2.295 3.104c0 1.772 1.607 2.175 1.607 2.175a3.226 3.226 0 0 1 .124-1.575c.02-.063.036-.126.06-.189.116-.296.273-.586.474-.86a3.028 3.028 0 0 1 2.145-1.234 3.22 3.22 0 0 1 1.359.069 3.233 3.233 0 0 1 2.258 3.969c-.376 1.368-1.551 2.362-2.796 2.362-1.116 0-1.813-.33-2.968-.878-.575-.272-1.225-.58-2.052-.905-2.791-1.102-5.446.007-6.999 1.41C17.755 10.894 10.3 18.404 9.994 18.712a4.486 4.486 0 0 0-.066 6.336l7.3 5.624c-1.934.885-3.82 1.59-5.443 2.191l-1.11.414c-3.925 1.48-8.45 2.127-10.39 2.352v2.081c1.876-.209 6.82-.879 11.118-2.499l1.1-.41c1.94-.719 4.238-1.576 6.57-2.708l.005.004h-.004l.034.023 1.18.91c.942.788 2.123 1.946 2.34 2.952.33 1.462.128 3.778-1.971 7.21l-4.18 6.536.004.003s1.7.9 3.028-.906l2.9-4.536c5.06-8.273.693-11.727.187-12.089l-1.508-1.16c2.121-1.192 4.194-2.646 5.969-4.482l-1.076 6.296-.015.175c0 3.262 1.085 5.942 3.227 7.966 3.631 3.431 9.48 4.126 13.041 4.2-2.562 2.607-6.224 5.027-9.913 6.48-6.236 2.455-21.123 4.553-21.273 4.574l.287 2.047c.62-.087 15.28-2.152 21.743-4.698 4.642-1.827 9.263-5.11 12-8.486 3.924-.48 13.566-4.267 16.636-5.501-.856-1.684-3.394-.872-3.606-.801-3.568 1.376-8.212 3.06-11.278 3.846 1.973-3.112 2.74-6 3.765-12.974.947-6.45 7.57-14.93 10.887-18.02l2.682-2.388s-.555.554.483 1.904c.18.235.343.456.489.663l-.007-.003c.002 0 .004.002.004.003l.09.128 4.222 6.885.6.872c1.391 2.017 3.124 4.526 2.79 5.578-.26.822-.69 1.408-1.181 1.608-.32.13-.674.092-1.053-.111-1.159-.621-4.136-3.412-5.185-4.435l-.31-.296-.423.002h-.003c-.184 0-2.766-.047-4.006-2.422-.7-1.104-.994-3.23-.994-3.23-1.104 1.116-1.298 1.863-1.29 2.68.005.326.078.638.172.913 1.22 3.006 3.97 3.99 5.701 4.113.984.947 3.939 3.735 5.362 4.497.534.286 1.094.43 1.644.43.398 0 .79-.075 1.163-.226 1.08-.44 1.922-1.469 2.375-2.9.638-2.016-1.076-4.5-3.061-7.376z"/>
    </g>
</svg>
