<svg xmlns="http://www.w3.org/2000/svg" width="78" height="77" viewBox="0 0 78 77">
    <g fill="#FFF" fill-rule="evenodd">
        <path d="M44.983 58.66c-.057.065-5.926 6.52-8.559 8.313-2.395 1.63-9.037 5.09-11.2 6.1h4.867c2.815-1.473 6.052-3.268 7.548-4.287 1.992-1.356 5.456-4.917 7.44-7.025.806-1.622.138-2.777-.086-3.093l-.01-.009M58.248 51.863c-2.027-1.537-3.577-.402-3.577-.402l-.018.002c2.532 2.354 8.109 7.685 10.303 10.941 2.206 3.273 7.208 11.04 9.296 14.29h2.586c-1.137-1.772-7.506-11.69-10.086-15.52-1.8-2.67-5.658-6.572-8.504-9.31M5.78 46.938l-.059-.02c-1.26 3.657-3.576 8.788-5.418 10.654v2.633c2.58-1.131 5.047-6.356 6.433-9.804l-.004.002c.776-2.041-.716-3.283-.953-3.465"/>
        <path fill-rule="nonzero" d="M57.283 27.056c-1.39 2.634-2.354 5.586-3.018 8.26a12.667 12.667 0 0 0-3.124-4.824c-3.568-3.45-8.687-4.618-12.231-5.003 4.2-4.412 13.21-8.774 22.115-7.853 1.948.2 3.56.452 4.933.771-2.558 1.625-6.551 4.628-8.675 8.649zM36.863 45.68c-2.466-4.84-2.506-10.56-.119-17 .136-.367.332-.745.56-1.127 3.174.203 8.768 1.07 12.333 4.517 1.913 1.85 3.002 4.253 3.274 7.152.028.308.044.624.054.944.007.17.012.342.016.534.065 3.643-.613 10.922-6.65 14.087-.035.018-.077.032-.113.05-4.383-2.56-7.546-5.607-9.355-9.157zM76.181 28.6l.006-.002-1.035-2.662-2.03-5.263c-.09-.218-.394-.825-.59-1.209l.779-4.4-.013.005.001-.006-1.752.613-.077.03c-.366.129-1.67.598-2.587 1.04-.02.002-.4.048-.91.125-1.782-.555-3.956-.95-6.745-1.238-9.757-1.001-20.514 4.073-24.82 9.684a22.309 22.309 0 0 0-1.542.005c-2.192-.06-3.25-.724-3.779-1.37-.316-.839-.502-1.874-.58-2.394l-.271-6.104c-.17-1.605-2.13-3.116-2.32-3.258l.438 9.795c.09.782.304 1.93.76 2.908.73 1.138 2.211 2.342 5.18 2.567-1.008 1.156-4.27 4.032-11.614 4.14-3.385-2.903-1.148-7.533-1.004-7.833l4.11-10.665c1.062-2.75 2.445-2.394 3.903-2.024l.21.052c3.126.78 6.035-.552 7.07-3.24 1.11-2.881-.312-6.138-3.174-7.259-2.856-1.118-6.093.318-7.203 3.198-.128.334-.199.686-.248 1.033l-.024.076c-.006.069-.005.146-.008.22-.01.456.082.998.415 1.47.095.136.214.262.354.38.348.296.827.533 1.524.636l-.002-.023a3.238 3.238 0 0 1-.226-.727 3.379 3.379 0 0 1-.066-.826c.003-.098-.016-.192-.005-.292.036-.335.113-.675.242-1.01.018-.047.045-.086.064-.132l.004-.012c.02-.052.05-.095.073-.145.058-.12.11-.244.179-.354a3.36 3.36 0 0 1 .355-.494c.005-.004.008-.01.013-.015.113-.13.237-.248.368-.359.045-.038.088-.078.134-.114.091-.068.185-.13.28-.188.101-.064.202-.123.308-.174.07-.034.143-.063.217-.092.107-.042.214-.08.324-.108a3.33 3.33 0 0 1 2.142.092c1.746.684 2.613 2.67 1.936 4.428-.737 1.911-2.804 2.333-4.525 1.908l-.197-.05c-1.411-.36-4.707-1.2-6.46 3.354L19.695 22.88c-.973 1.93-1.82 5.645.075 8.671-4.231-.143-8.416-.464-11.87-.74-3.634-.288-6.032-.467-7.598-.446v2.181c1.626-.014 4.562.219 7.426.448 4.034.32 9.054.72 14.025.81.076 0 .151 0 .226.002.145.1.277.203.434.299 3.559 2.168 6.095 4.205 3.753 8.957-2.443 4.95-4.021 7.892-4.532 8.829.473.181 1.988.547 3.152-1.295a311.557 311.557 0 0 0 3.324-6.56c2.661-5.4.097-8.51-2.487-10.429 3.995-.486 6.692-1.799 8.394-3.018-1.677 5.947-1.321 11.323 1.069 16.011 1.771 3.477 4.654 6.511 8.614 9.086-8.772 1.964-26.987-1.489-33.745-2.909-.399-.06-1.784-.094-3.062 1.57 1.122.263 17.758 4.091 30.036 4.091 2.967 0 5.664-.231 7.84-.783.169-.043.347-.08.509-.127.149-.043.283-.095.425-.142.18-.05.369-.1.498-.152a37.551 37.551 0 0 0 3.449 1.652c.157.067.332.121.491.186 2.54 1.036 5.355 1.874 8.417 2.528.245.053.49.104.739.154.56.113 1.091.248 1.67.348.1-1.098-.576-1.807-1.188-2.221a4.242 4.242 0 0 0-.644-.363c-3.314-.697-6.28-1.64-8.941-2.791-.56-.243-1.122-.484-1.653-.746 4.999-3.326 6.334-9.032 6.584-13.092.261-2.406 1.237-9.43 4.075-14.806 1.772-3.355 5.151-6.001 7.525-7.563a.3.3 0 0 0 .01.013l.44-.285c.65-.415 1.195-.735 1.578-.95.37-.209.594-.325.594-.325.244-.152.675-.35 1.15-.55v.005c-.013.018-.032.055-.048.08l-.004.007a1.887 1.887 0 0 0-.089.167c-.015.032-.028.07-.042.107-.021.052-.042.102-.058.162a1.533 1.533 0 0 0-.053.338c-.002.042.004.088.005.132.003.088.015.18.035.276.008.035.004.065.014.101l.023.08c.008.025.029.05.039.075.015.04.044.082.063.122.02.045.044.09.07.135.033.058.045.112.088.17.228.442.5.984.555 1.112l2.92 7.529.15.392c.004.006.005.011.008.018l.006.015c1.408 3.18 1.642 4.53 1 5.758-.422.808-.978 1.338-1.522 1.453-.363.077-.714-.031-1.068-.312-1.066-.852-2.685-3.172-3.219-3.994l-.265-.399-.463-.081c-.133-.024-2.754-.55-3.64-3.196-.017-.024-.033-.035-.052-.08-.518-1.283-.426-3.553-.426-3.553-1.349.956-1.69 1.698-1.832 2.551a2.96 2.96 0 0 0-.024.712c.007.034.007.075.013.11.009.08.025.148.038.224.72 3.3 3.33 4.83 5.085 5.287.613.913 2.165 3.117 3.437 4.133.857.686 1.882.948 2.862.74 1.197-.254 2.261-1.168 2.998-2.575 1.124-2.15.566-4.275-.92-7.626z"/>
    </g>
</svg>
