<svg xmlns="http://www.w3.org/2000/svg" width="77" height="79" viewBox="0 0 77 79">
    <g fill="#FFF" fill-rule="evenodd">
        <path d="M22.461 70.053c-.265.134-1.09.711-1.204 2.68 1.465 2.836 3.573 4.72 5.632 5.968h5.64c-2.484-.591-7.866-2.567-10.068-8.648M18.142 56.519c-.136-.146-.97-.897-3.057-.233 1.288 1.322 5.045 5.668 4.293 10.688-.663 4.424-4.62 8.366-11.746 11.727h4.622c5.5-3.287 8.606-7.115 9.245-11.417.673-4.525-1.553-8.433-3.357-10.765M51.586 54.738l15.647-4.503c-.657-1.61-2.61-1.443-2.978-1.396L52.99 52.081c-.382.2-1.126.823-1.404 2.657"/>
        <path fill-rule="nonzero" d="M47.569 52.6l-2.819-2.507c-.081-.071-8.087-7.221-8.087-17.157 0-.078.012-.155.02-.232l.018-.151c.127-1.265.516-2.582 1.117-3.886 3.979.56 14.977 2.818 14.977 10.71 0 5.302-1.867 9.836-5.226 13.222zm-8.642-25.952a20.079 20.079 0 0 1 4.397-4.84c4.303-3.42 9.675-4.992 15.123-4.431 3.235.333 5.754 1.423 7.727 2.725-2.384 1.851-7.617 6.088-9.562 9.08-.439.674-1.168 1.758-2.01 3.01l-1.258 1.874c-.107-.164-.2-.339-.316-.497-.075-.1-.148-.201-.225-.3a11.071 11.071 0 0 0-1.48-1.543 13.138 13.138 0 0 0-1.342-1.047c-3.322-2.259-7.705-3.319-11.169-3.838l.115-.193zm31.512 24.988c3.787-8.155-4.22-7.42-4.22-7.42l-8.895.79c-.421.11-1.303.563-1.98 2.35l10.346-.917s5.246-.972 2.559 4.816c-1.505 3.24-4.31 9.278-6.486 13.967L49.209 54.058c2.783-2.84 4.63-6.41 5.368-10.526 0 0 .47-3.015.35-4.5a9.59 9.59 0 0 0-.491-2.726c.658-.987 1.324-1.98 1.94-2.896.849-1.264 1.585-2.358 2.027-3.039 1.59-2.444 5.886-6.027 8.384-8.006.903-.74 1.728-1.334 1.728-1.334s-.416 1.066.153 1.94c.134.168.193.276.193.276l3.297 8.31.513 1.066c1.121 2.307 2.517 5.177 2.015 6.217-.393.812-.924 1.353-1.46 1.485-.346.085-.705-.007-1.062-.276-1.096-.823-3.725-4.178-4.646-5.401l-.271-.36c-3.965.015-5.31-5.365-5.31-5.365-.937 1.347-1.007 2.153-.856 2.997.012.069.032.134.05.201 1.017 2.626 3.341 3.826 4.937 4.177.866 1.136 3.472 4.48 4.815 5.49.645.485 1.368.736 2.095.736.253 0 .506-.03.756-.092 1.174-.289 2.197-1.227 2.88-2.641.963-1.994-.419-4.834-2.017-8.123l-.462-.955-2.884-7.27h.005l-.364-6.18-2.603 1.409-.207.137c-2.31-1.694-5.363-3.17-9.418-3.588-6.004-.616-11.923 1.116-16.665 4.883-1.841 1.463-3.408 3.159-4.625 4.963-.33.403-.755.843-1.247 1.307l-.149.125c-1.025-.093-1.844-.14-2.327-.17a14.161 14.161 0 0 1-3.578-.699c-.082-.026-.164-.051-.244-.079a13.683 13.683 0 0 1-.788-.3l-.223-.1c-3.594-1.622-4.362-4.304-4.404-4.468l-1.913-6.127c-.306-.587-1.072-1.577-2.922-2.157l2.763 8.836c.168.644 1.992 6.61 11.277 7.262-2.967 2.317-6.866 4.87-10.092 6.807-.491.294-1.058.604-1.677.926-.224.04-.417.088-.569.137-4.333-1.048-4.404-6.38-4.406-6.567l.628-16.16c.57-2.784 1.96-2.683 3.432-2.573l.213.015c3.172.215 5.771-1.591 6.318-4.39a5.56 5.56 0 0 0-.826-4.168 5.456 5.456 0 0 0-3.5-2.356 5.412 5.412 0 0 0-4.124.835 5.519 5.519 0 0 0-2.33 3.538 4.02 4.02 0 0 0-.067.55s-.418 2.803 2.671 2.803c-.845-1.074-.577-2.587-.577-2.587.688-3.696 4.012-3.013 4.012-3.013A3.33 3.33 0 0 1 24.86 3.73c.498.751.677 1.654.503 2.541-.389 1.993-2.322 2.762-4.073 2.649l-.2-.014c-1.43-.103-4.779-.351-5.706 4.395l-.652 16.453c-.003 2.165.92 6.094 4.116 7.943a344.548 344.548 0 0 1-4.898 2.228c-2.122.953-4.316 1.938-6.51 2.974a21.305 21.305 0 0 0-7.144 5.45v3.673c.64-1.114 3.049-4.801 8.05-7.16 2.176-1.027 4.362-2.008 6.475-2.957 2.952-1.326 5.605-2.518 7.7-3.59.935-.065 2.777.26 5.212 2.904 4.166 4.526 11.819 12.37 11.896 12.449l.059-.059c.32-.416.907-1.459.146-2.82-2.38-2.453-7.431-7.677-10.531-11.045-1.455-1.58-2.801-2.497-3.973-3.008 1.926-1.178 6.196-3.86 9.649-6.562a13.311 13.311 0 0 0-.41 2.154l-.013.114c-.02.164-.037.327-.037.493 0 10.944 8.467 18.478 8.82 18.789l2.613 2.323c-3.107 2.478-7.172 4.153-12 4.809-.23.03-5.642.757-8.832 2.175-.16.071-.41.174-.701.293a.19.19 0 0 1-.015.006c-.33.2-1.082.877-1.14 2.861.462-.244 1.482-.663 1.96-.86.316-.128.586-.24.76-.317 2.907-1.293 8.194-2.002 8.25-2.01 5.405-.735 9.939-2.646 13.377-5.483l13.203 11.742-2.088 4.496h2.368l1.396-3.006 11.185 9.947h3.245L63.438 66.71l7.001-15.075z"/>
    </g>
</svg>
