<svg xmlns="http://www.w3.org/2000/svg" width="82" height="72" viewBox="0 0 82 72">
    <g fill="#FFF" fill-rule="evenodd">
        <path d="M5.075 37.023a17.18 17.18 0 0 0-4.754.672v2.106a15.163 15.163 0 0 1 4.754-.763c8.42 0 15.27 6.869 15.27 15.313 0 8.443-6.85 15.312-15.27 15.312-1.66 0-3.256-.27-4.754-.764v2.107a17.18 17.18 0 0 0 4.754.672c9.528 0 17.279-7.773 17.279-17.327 0-9.555-7.751-17.328-17.279-17.328M69.75 56.678c-3.304-3.576-7.164-6.863-9.95-9.085-1.533-1.007-2.958-.046-3.15.094 2.61 1.99 7.563 5.964 11.626 10.36 4.314 4.67 8.28 9.694 10.024 11.957h2.529c-.3-.4-5.386-7.163-11.08-13.326M34.072 24.685a350.74 350.74 0 0 0-4.548.237c-1.108.062-2.062.116-2.563.136-4.909.195-6.8-.185-7.52-.538-2.961-1.45-2.86-2.18-2.053-4.5l1.7-5.035c.118-1.378-.998-2.37-1.25-2.575l-2.35 6.954c-1.101 3.161-.922 5.01 3.07 6.966 1.096.537 3.005.797 5.92.797.78 0 1.634-.018 2.562-.055.508-.02 1.475-.075 2.596-.138.651-.037 1.363-.077 2.067-.115 2.362-.394 2.38-1.907 2.37-2.134"/>
        <path d="M21.725 41.56l.368.884c.465.903 1.357 2.024 2.78 1.447l-3.431-8.244c-2.303-5.13-6.075-5.612-9.099-5.47-2.672.132-2.69-.105-2.998-4.06-.048-.618-.1-1.303-.174-2.06-.178-1.852 1.788-6.75 5.27-13.167.611-.941 1.993-.58 1.993-.58v-.01c1.457.354 2.692.42 4.285-.027 2.053-.575 3.478-2.59 3.469-4.9a5.134 5.134 0 0 0-1.523-3.643A5.104 5.104 0 0 0 19.042.233h-.022S16.63.189 15.1 2.059c0 0-.464.5-.785 1.384h-.006s-.99 2.135.56 3.064c.302.202.704.357 1.254.39a3.148 3.148 0 0 1-.296-1.511c.003-.065.001-.129.008-.193a3.61 3.61 0 0 1 .218-.93 2.943 2.943 0 0 1 1.687-1.723 3.098 3.098 0 0 1 1.288-.29h.01c.837 0 1.62.323 2.212.911.596.592.925 1.38.928 2.222.006 1.383-.834 2.624-2 2.95-1.334.375-2.252.33-4.069-.203-.835-.32-2.295-.278-3.072 1.133-2.837 5.16-6.157 11.948-5.865 14.99.071.742.123 1.415.17 2.022.128 1.633.236 2.957.638 3.94l-7.659.158v2.015l11.296-.183c.258.005.532 0 .824-.013h.007l.964-.017c2.617.045 4.688.939 6.186 4.274l2.094 5.033.004-.015.029.093"/>
        <path fill-rule="nonzero" d="M41.534 26.62c1.57-1 3.511-2.236 5.977-3.766 4.536-2.817 11.153-3.848 14.493-3.854h.017c.235 0 .459.025.687.04.16.011.312.038.469.056.476.062 1.054.156 1.651.298.761.182 1.546.44 2.172.809 0 0-2.366 1.598-4.775 4.147a25.691 25.691 0 0 0-2.157 2.598 33.524 33.524 0 0 0-1.822 2.569 29.433 29.433 0 0 0-1.474 2.663c-1.084-3.883-3.818-6.044-6.255-7.222-2.281-.887-3.552.077-4.165.884l.08.015c2.906.592 9.556 2.929 8.543 11.821C54.102 45.341 49.158 49.8 40.237 51c-4.402-3.264-6.32-7.174-7.104-9.41-1.437-4.102-1.447-7.504-.368-10.57 2.452-.383 3.935-1.325 8.769-4.4zm38.64-1.2l-4.492-8.125-.517-4.13s-1.772.762-2.35.97a11.218 11.218 0 0 0-2.392-1.234c-1.799-.678-3.24-1.14-4.533-1.455-2.015-.493-5.52-.558-7.306-.29-3.487.527-6.633 1.161-12.652 4.067-1.48.715-4.632 2.761-5.716 3.711-3.72 3.263-6.657 6.503-8.28 10.17l-.404.032a123.1 123.1 0 0 1-7.371.3l-8.16-.09s-.06.708.493 1.346c.322.373.863.717 1.738.885l5.926.068c2.303-.023 4.642-.12 6.963-.273-.91 3.275-.797 6.925.677 11.23.747 2.181 2.431 5.793 5.998 9.097-2.043.102-4.26.059-6.65-.133-3.15-.253-9.207-.9-11.19-1.115l-.01.043s0 2.182 2.954 2.473c1.56.154 3.117.342 4.678.494 1.132.11 2.265.217 3.4.308 1.45.117 2.94.185 4.444.185 1.613 0 3.237-.08 4.834-.263 3.8 2.687 9.156 4.876 16.705 5.434 1.155.086 2.188.126 3.293.132 1.247 3.052 2.265 6.896 2.926 9.743l2.219-.008c-.682-3.004-1.803-7.336-3.243-10.792l.005-.004s-.06-.137-.15-.335c-.095-.223-.196-.43-.295-.644-1.068-2.079-2.375-2.411-3.2-2.37-.255.02-.52.068-.804.172 0 0 .659.882 1.356 2.007a47.89 47.89 0 0 1-1.952-.105c-5.836-.432-10.255-1.886-13.6-3.771 7.108-1.568 13.075-5.729 14.106-14.997.053-.474.086-.93.104-1.373.58-1.635 1.684-4.142 2.816-5.974 1.18-1.905 4.332-5.61 4.332-5.61s2.605-2.619 4.556-3.825c.427-.264.824-.463 1.154-.55 0 0-.146.975.323 1.685.02.022.833 1.688.833 1.688 1.721 3.608 5.791 12.313 5.411 13.16-.375.838-.897 1.403-1.432 1.55-.35.095-.71.008-1.075-.257-1.12-.812-3.842-4.167-4.796-5.392l-.282-.36-.448-.05c-.12-.012-2.288-.276-3.451-2.223a14.492 14.492 0 0 1-1.151-2.072c-.778 1.477-.753 2.302-.504 3.138.164.551.504 1.01.776 1.314a7.213 7.213 0 0 0 3.64 1.97c.898 1.136 3.596 4.482 4.97 5.478.637.463 1.342.7 2.047.7.28 0 .558-.036.833-.112 1.174-.322 2.18-1.303 2.834-2.76.921-2.055-.533-4.917-2.217-8.23l-4.097-8.933-.395-3.412-2.791 1.155a15.21 15.21 0 0 0-3.52-1.568c-1.013-.323-2.136-.56-3.218-.528h-.016c-.133-.003-.262-.016-.396-.016h-.02c-3.557.006-10.62 1.14-15.498 4.24-2.45 1.558-4.382 2.816-5.943 3.833-3.437 2.24-5.005 3.257-6.374 3.765 1.552-2.765 3.97-5.32 6.992-7.97.943-.828 3.927-2.762 5.233-3.392 5.763-2.782 8.628-3.363 12.046-3.879 1.53-.23 4.765-.17 6.492.252 1.21.295 2.572.734 4.288 1.38 1.251.471 2.143 1.081 2.77 1.647l.902-.43s-.35.669.026 1.458l5.949 10.784c.37.804.582 1.505.496 1.978-.01.038-.025.094-.042.171l-.004.01a4.62 4.62 0 0 0-.096.56c-.097.776-.078 1.912.724 2.43.609-.559 1.102-1.354 1.427-2.308.557-1.637-.322-3.612-1.656-5.856z"/>
    </g>
</svg>
