<svg xmlns="http://www.w3.org/2000/svg" width="81" height="79" viewBox="0 0 81 79">
    <g fill="#FFF" fill-rule="evenodd">
        <path d="M43.624 61.818c-.498-2.057-2.378-2.45-2.378-2.45l-.026-.01 1.819 16.536h2.132l-1.547-14.076M49.155 59.128l-2.38 19.588h2.136l1.984-16.331c.172-2.601-1.643-3.226-1.74-3.257M17.796 45.126c.113-.829-.211-2.334-1.3-2.809-1.849 5.373-6.338 14.31-16.21 16.867v2.154c1.94-.475 5.014-1.541 8.257-3.91 4.113-3.004 7.208-7.13 9.253-12.302M74.659 47.19l-7.534-.63c-.872-.07-1.945.682-2.787 1.871l10.163.85c.173.01 4.242.327 4.242 5.187v12.01h2.12v-12.01c0-5.444-4.072-7.142-6.204-7.278"/>
        <path fill-rule="nonzero" d="M56.611 51.809c-10.466-1.868-15.74-9.235-15.698-21.962 1.52.23 3.846.409 6.277.595 1.88.145 3.656.282 4.8.428 5.784.739 8.275 6.797 8.596 7.644.106 1.043.188 1.947.202 2.626.095 4.776-1.289 8.307-4.177 10.669zm7.513-41.891c.112 0 .225 0 .338.003 3.308.067 5.781.5 7.64 1.1-2.22 1.582-6.297 4.696-9.393 8.258-2.868 3.301-2.972 9.124-2.603 14.176-1.643-2.08-4.172-4.196-7.845-4.665-1.197-.153-3-.291-4.907-.438-1.938-.149-4.055-.311-5.521-.494 6.594-11.902 14.09-17.94 22.29-17.94zm9.849 42.12l-11.997.204s-1.32.014-2.651-.07c2.468-2.692 3.675-6.384 3.581-11.073-.018-.972-.155-2.273-.313-3.779-.547-5.221-1.372-13.111 1.724-16.674 3.206-3.689 7.65-6.966 9.574-8.31l1.679-1.261s-.541 1.2.44 2.046c1.469 1.317 1.626 2.544 1.628 2.563l.004 8.658.083 1.147c.19 2.476.426 5.558-.412 6.308-.654.586-1.34.88-1.878.804-.35-.05-.644-.264-.875-.635-.705-1.136-1.898-5.103-2.298-6.535l-.12-.42-.38-.214c-.24-.137-1.771-1.072-2.21-2.886-.376-1.264-.227-3.208-.227-3.208-1.349.869-1.706 1.567-1.875 2.38a2.98 2.98 0 0 0-.023.969c.392 2.087 1.777 3.578 2.904 4.332.384 1.335 1.558 5.284 2.423 6.679.56.902 1.405 1.475 2.38 1.613 1.184.167 2.462-.303 3.602-1.325 1.607-1.44 1.373-4.49 1.102-8.021l-.076-1.028-.005-8.618c0-.55-.29-1.678-1.204-2.896l.009-.006a23.805 23.805 0 0 0-.816-1.005l-.19-4.32-3.342 2.134c-2.517-1.086-5.755-1.687-9.708-1.766-9.24-.195-17.567 6.314-24.701 19.322-.02.036-.041.066-.061.101-1.211-1.033-2.85-4.092-2.85-7.47v-4.764c-.07-.89-.893-2.026-2.12-2.992v7.756c0 3.643 1.705 7.593 3.763 9.192-1.829 2.112-4.148 2.915-6.279 3.111V13.938c0-2.828 1.38-2.996 2.843-3.174l.209-.025c3.116-.398 5.292-2.602 5.292-5.36 0-2.958-2.435-5.366-5.427-5.366-2.992 0-5.427 2.408-5.427 5.367 0 0-.19 3.37 3.155 2.699-.674-.622-1.061-1.55-1.061-2.547 0-1.323.683-2.504 1.74-3.01a3.247 3.247 0 0 1 1.593-.42c1.827 0 3.314 1.47 3.314 3.278 0 1.967-1.733 3.067-3.45 3.286l-.195.024c-1.407.172-4.699.572-4.699 5.248v18.165h-.015c-3.493-.25-10.628-1.72-15.348-2.693-2.012-.415-3.601-.743-4.418-.876-4.972-.814-8.252 1.598-10.077 3.488v3.263c.088-.1.202-.243.34-.418 1.101-1.407 4.032-5.14 9.391-4.265.773.127 2.344.45 4.331.86 4.776.985 11.994 2.473 15.63 2.731.238.017.495.028.763.033.065.053.132.105.203.161.484.38 1.45 1.134 3.381 2.64 1.373 1.07 1.413 1.741.837 3.345L31.06 51.796l.004.003s1.875.493 2.796-1.536l3.301-9.19c.76-2.112.791-3.888-1.52-5.692l-1.823-1.421c1.638-.328 3.402-1.007 4.998-2.319.508 13.982 7.56 19.716 15.282 21.762-1.514.726-3.286 1.255-5.323 1.589-9.526 1.559-23.959-2.468-29.369-4.148-.83-.1-1.835.36-2.807 1.298 1.097.38 15.528 5.301 27.328 5.301 1.813 0 3.564-.116 5.194-.383 3.223-.527 5.871-1.524 7.97-2.963 2.147.28 4.606.245 4.606.245l14.949-.253c-.102-1.756-2.094-2.015-2.672-2.052z"/>
    </g>
</svg>
