<svg xmlns="http://www.w3.org/2000/svg" width="79" height="79" viewBox="0 0 79 79">
    <g fill="#FFF" fill-rule="evenodd">
        <path d="M22.116 22.648c.942-.504 1.914-1.025 2.771-1.588 2.005-1.317 3.755-3.437 5.044-5.304.509-1.655-.105-3.138-.252-3.454-1.076 1.867-3.3 5.319-5.92 7.04-.78.512-1.67.99-2.614 1.494-2.593 1.39-5.276 2.829-5.918 5.257-.321 1.215-.07 2.534.733 3.926.334-.095 1.09-.448 1.47-1.637-.281-.656-.354-1.239-.216-1.763.414-1.565 2.696-2.788 4.902-3.97M16.737 12.64c2.232-.072 4.54-.146 6.817-.326 1.16-.092 2.272-.344 3.348-.588 1.558-.353 3.031-.686 4.577-.544 1.3.122 4.568.196 6.87-1.698a4.995 4.995 0 0 0 1.762-2.99 5.233 5.233 0 0 0-.883-3.932 5.269 5.269 0 0 0-9.495 2.13c-.094.545-.087 1.144.091 1.672.083.244.203.475.365.675.297.368.737.612 1.194.716.302.068.613.081.92.059-.021.001-.1-.143-.113-.163a3.478 3.478 0 0 1-.52-1.819 3.65 3.65 0 0 1 .077-.775c.04-.18.093-.358.157-.531.06-.163.133-.319.214-.466.013-.024.023-.049.036-.072.075-.129.162-.247.25-.362.044-.056.086-.113.132-.166.062-.07.13-.133.196-.197.091-.087.185-.17.284-.243.049-.037.1-.07.15-.103.103-.067.207-.128.317-.18.12-.057.24-.116.37-.154a3.175 3.175 0 0 1 1.619-.153 3.188 3.188 0 0 1 2.075 1.315 3.19 3.19 0 0 1 .538 2.397 2.936 2.936 0 0 1-1.042 1.755c-1.712 1.409-4.329 1.337-5.374 1.239-1.873-.175-3.574.212-5.221.585-1.051.239-2.044.463-3.057.543-2.228.177-4.511.25-6.72.321-.685.023-1.37.045-2.055.07l.074 2.054c.683-.025 1.365-.047 2.047-.069M36.795 69.462h-.001l1.25 9.275h2.075l-.934-6.925c-.597-2.259-2.39-2.35-2.39-2.35M44.557 69.2l-.002-.002-1.506 9.539h2.081l1.047-6.628c.057-2.311-1.62-2.908-1.62-2.908M13.975 58.883c-1.3-.45-2.969.768-2.969.768l-.014.003c-4.661 6.287-8.9 7.95-10.729 8.38v2.099c2.18-.4 7.889-2.29 13.76-11.218l-.048-.032M65.396 69.548l-7.111-5.277c-1.182-.63-2.424.186-2.805.477l8.692 6.45c.51.38.844.94.938 1.575a2.378 2.378 0 0 1-.443 1.78l-3.075 4.142.057.042h2.473l2.196-2.96c.707-.952 1-2.126.826-3.305a4.421 4.421 0 0 0-1.748-2.924"/>
        <path d="M30.28 23.87c3.265-4.121 6.494-8.564 7.044-9.324v-.001c1.397-1.893 3.267-2.546 4.808-2.723.47-.029.98-.025 1.54.028.406.038.838.075 1.285.111h.001c5.526.448 13.656.745 13.744.748l.074-2.054c-.095-.004-9.52-.465-14.913-.852-6.001-.43-8.543 4.005-8.543 4.005-1.042 1.43-3.837 5.234-6.652 8.786-3.554 4.484-11.367 8.765-15.41 10.008C9.81 33.662 3.24 35.866.264 36.87v2.17c2.306-.779 9.89-3.332 13.6-4.473 4.402-1.355 12.557-5.826 16.416-10.697"/>
        <path fill-rule="nonzero" d="M57.07 52.494c-.055 1.532-.103 2.855-.268 3.9-.723 4.575-8.034 7.416-10.253 8.178-4.805-5.226-7.149-9.966-7.149-14.475 0-1.144.178-7.128 3.71-12.647 3.819-5.97 10.049-8.998 18.532-8.998 2.679.001 5.174 1.248 6.907 2.315-10.868 5.079-11.235 15.047-11.478 21.727zM77.21 42.29l-.352-.926-2.236-7.016-.175-.567a22.65 22.65 0 0 0-.484-1.167l.995-4.074-1.687.466c-.18.05-1.447.404-2.443.788-1.824-1.23-5.238-3.396-9.2-3.398-9.086 0-16.088 3.44-20.25 9.947a23.28 23.28 0 0 0-1.127 1.972c-.386.76-.662 1.537-1.155 2.24-.471.672-1.086 1.414-1.828 1.8-1.67.866-4.08 1.311-7.095 1.293-1.55-.006-1.978-.504-2.19-.962-.416-.907-.257-2.153.398-3.103 1.098-1.59 2.966-2.806 4.82-3.883 1.773-1.03 3.704-1.885 5.573-2.713l.9-.4c1.197-.532 2.685-1.193 3.532-2.536.496-.787.643-1.686.413-2.534-.223-.822-.78-1.501-1.57-1.912-1.232-.64-2.687-.754-3.997-.81h-6.509c-.337.252-1.017.914-.922 2.055l7.385-.001c1.095.048 2.234.133 3.094.58.278.144.463.36.536.626.077.286.017.604-.168.899-.514.815-1.59 1.293-2.63 1.755l-.897.398c-1.918.85-3.902 1.73-5.772 2.815-2.061 1.197-4.152 2.57-5.48 4.494-1.032 1.497-1.268 3.422-.634 4.963a54.552 54.552 0 0 1-2.66-.371c-1.42-.233-2.655-.46-3.797-.672-3.449-.636-6.173-1.138-10.572-1.138-3.8 0-6.941 1.556-8.763 2.723v2.512c1.076-.846 4.435-3.18 8.763-3.18 4.212 0 6.723.464 10.199 1.105 1.154.213 2.402.443 3.837.678 1.728.284 3.369.48 4.878.583 3.26.222 7.242.073 10.156-1.383-.69 2.902-.752 5.178-.752 5.86 0 4.812 2.289 9.757 6.98 15.08-9.698 2.702-25.36-.925-29.629-2.018-.954.097-1.716 1.01-2.094 1.562 1.628.452 13.077 3.484 23.217 3.484 3.618 0 7.123-.376 10.062-1.358 5.125 4.903 14.8 6.046 16.79 6.233.002-1.517-1.335-2.126-2.076-2.346-3.222-.514-8.75-1.764-12.367-4.58 3.211-1.222 9.796-4.323 10.605-9.439.184-1.167.234-2.547.292-4.145.027-.746.054-1.49.094-2.235.042-.788.097-1.576.177-2.362.082-.812.19-1.622.334-2.425.148-.82.334-1.635.569-2.435.24-.815.53-1.615.878-2.39.359-.796.78-1.564 1.264-2.291a15.113 15.113 0 0 1 1.725-2.14 16.106 16.106 0 0 1 2.262-1.933 19.325 19.325 0 0 1 2.875-1.673c.94-.446 1.907-.83 2.867-1.231 0 0-.573.608-.319 1.46.22.497.467.986.643 1.5l2.424 7.621.372.985c.865 2.275 1.94 5.108 1.369 6.043-.446.732-1.001 1.194-1.523 1.27-.338.05-.672-.07-.988-.355-.971-.875-3.181-4.275-3.951-5.512l-.228-.359-.41-.098a3.448 3.448 0 0 1-.422-.138 5.181 5.181 0 0 1-.882-.443 4.71 4.71 0 0 1-1.014-.851 4.274 4.274 0 0 1-.818-1.363c-.25-.676-.344-1.422-.377-2.139-.026-.568-.021-1.142.028-1.708-1.33.815-1.695 1.49-1.88 2.28a2.935 2.935 0 0 0-.051.921c.462 3.191 2.882 4.794 4.523 5.323.726 1.148 2.915 4.539 4.107 5.613.77.694 1.715 1.001 2.66.863 1.145-.168 2.203-.96 2.98-2.234 1.095-1.794.03-4.597-1.202-7.843z"/>
    </g>
</svg>
