<svg xmlns="http://www.w3.org/2000/svg" width="78" height="79" viewBox="0 0 78 79">
    <g fill="#FFF" fill-rule="evenodd">
        <path d="M60.35 78.715l-11.767-20.75c-.824-.969-2.172-.747-2.713-.604l12.111 21.354h2.37"/>
        <path fill-rule="nonzero" d="M49.71 45.442c-.88-5.374-5.875-10.64-8.576-13.145 3.31-3.37 8.125-5.9 14.03-5.9 5.529 0 9.2 2.438 11.363 4.584-2.936 1.034-9.838 4.39-16.817 14.46zm-2.148 3.285c-1.035 1.557-4.188 5.96-7.654 7.38-1.152-2.149-3.766-7.638-3.766-13.206 0-2.8 1.288-6.128 3.624-9.06 2.556 2.379 9.328 9.336 7.796 14.886zm27.275-7.717l-.519-.863-3.082-6.106.468-4.9-3.008 1.134c-2.327-2.592-6.664-5.944-13.532-5.944-5.559 0-10.826 2.105-14.891 5.928l-.323.228c-.212.15-.418.297-.635.436-3.966-2.72-5.008-8.604-5.236-10.411-.27-2.149-.815-4.416-1.309-6.194a5.422 5.422 0 0 0-2.93-2.528c.164.475 1.7 5.024 2.197 8.98.3 2.383 1.367 7.754 5.032 11.024-.648.12-1.446.189-2.47.189-1.836 0-3.644-.9-5.955-2.589a7.544 7.544 0 0 1-1.708-2.086c-1.895-3.915-1.246-6.614-1.21-6.75l.021-.097a331.237 331.237 0 0 1 1.359-7.27c.474-2.74 1.822-2.675 3.25-2.602l.204.01c3.036.14 5.502-1.643 5.968-4.32.496-2.875-1.43-5.62-4.295-6.12-2.858-.5-5.585 1.422-6.094 4.283 0 0-.685 3.305 2.569 3.161a3.294 3.294 0 0 1-.581-1.395c-.015-.087-.032-.174-.04-.264a3.709 3.709 0 0 1 .039-.978c.008-.05.027-.095.037-.143l.008-.031c.038-.17.08-.336.137-.493a3.6 3.6 0 0 1 .215-.468l.036-.072c.075-.13.16-.249.252-.365.042-.056.084-.112.13-.164.063-.071.13-.137.2-.202.09-.086.181-.166.278-.24a3.505 3.505 0 0 1 .465-.284 3.176 3.176 0 0 1 1.997-.31 3.229 3.229 0 0 1 2.617 3.73c-.33 1.906-2.171 2.684-3.848 2.612l-.192-.01c-1.376-.069-4.594-.23-5.376 4.287-.007.036-.747 3.744-1.356 7.256-.097.399-.535 2.582.405 5.714l-.98-.821c-.821-.688-1.697-1.421-2.637-2.2-7.19-5.955-13.26-6.767-16.521-7.203l-.53-.073c-1.402-.194-2.432-.119-3.179.061v2.18c.322-.161 1.163-.437 2.895-.195l.542.073c3.056.41 8.746 1.17 15.483 6.75a597.92 597.92 0 0 1 2.627 2.192c1.042.874 1.998 1.674 2.89 2.403l-.01.003a.22.22 0 0 1 .047.026c.159.13.312.252.467.378.399.353.977.927 1.558 1.714.026.035.046.056.07.086.137.193.265.383.414.578l3.177 4.58c1.286 1.657.38 3.974.241 4.301L24.583 50.68c1.606.527 2.513-.306 2.852-.729l5.043-8.317.052-.096c.07-.15 1.702-3.7-.429-6.446l-1.382-1.993c1.307.621 2.555.95 3.88.95a16.53 16.53 0 0 0 2.578-.18c-1.973 2.893-3.094 6.086-3.094 9.033 0 5.694 2.426 11.148 3.76 13.718-4.887.668-9.791-1.334-15.743-6.39-4.99-4.239-10.282-8.341-12.666-10.165-.417-.19-1.417-.449-2.716.526 2.185 1.662 8.62 6.601 14.052 11.216 5.607 4.764 10.429 7.01 15.214 7.01 1 0 1.998-.103 3.001-.296L51.346 74.36h2.614L41.067 57.847c4.684-2.186 8.437-8.314 8.609-8.598 4.734-7.65 9.572-11.774 12.795-13.887a25.79 25.79 0 0 1 2.673-1.538h-.003l.033-.016c.382-.188.726-.343 1.047-.48l2.712-1.244s-.246 1.303.044 2.055l.015.028 3.508 6.947.576.965c1.263 2.094 2.835 4.7 2.442 5.728-.308.804-.772 1.362-1.272 1.532-.324.11-.673.052-1.037-.173-1.114-.689-3.905-3.649-4.886-4.731l-.28-.308-.414-.028c-.02-.002-2.133-.184-3.39-1.748-.86-1.07-1.16-2.582-.892-4.494l.187-.63c-1.324.577-2.026 1.49-2.32 2.4.078 1.583.548 2.933 1.423 4.021 1.436 1.786 3.52 2.31 4.42 2.457.906.987 3.697 3.97 5.072 4.82.885.546 1.871.677 2.777.37 1.098-.372 1.998-1.348 2.534-2.747.754-1.973-.802-4.552-2.603-7.538z"/>
        <path d="M14.873 31.838c-2.025-.247-3.766.036-5.19.87-1.165.682-1.78 1.517-2.376 2.323-.483.655-.94 1.272-1.728 1.9-1.364 1.082-3.146 1.688-5.295 1.826v2.073c2.636-.146 4.843-.907 6.573-2.281 1.002-.796 1.588-1.589 2.104-2.288.536-.727.96-1.3 1.76-1.77.862-.505 1.931-.71 3.172-.656.31-.21.931-.779.98-1.997M.284 48.532v2.624L10.8 59.42l-.046 19.294h2.06l.046-20.297L.284 48.532"/>
    </g>
</svg>
