<svg xmlns="http://www.w3.org/2000/svg" viewBox="0 0 72 64"><defs><style>.cls-1{fill:#fff;}.cls-2{fill:none;}</style></defs><title>rangiranje</title><g id="Layer_2" data-name="Layer 2"><g id="Layer_1-2" data-name="Layer 1"><path class="cls-1" d="M69,27.92H48.64V2.63A1.63,1.63,0,0,0,47,1H25a1.63,1.63,0,0,0-1.63,1.63v15.5H3a1.63,1.63,0,0,0-1.63,1.63V61.37A1.63,1.63,0,0,0,3,63H69a1.63,1.63,0,0,0,1.63-1.63V29.55A1.63,1.63,0,0,0,69,27.92ZM4.59,21.39H23.36V59.74H4.59Zm22-1.63V4.26H45.38V59.74H26.62Zm40.79,40H48.64V31.18H67.41Z"/><rect class="cls-2" width="72" height="64"/></g></g></svg>