<svg xmlns="http://www.w3.org/2000/svg" viewBox="0 0 21.25 19"><defs><style>.cls-1{fill:#fff;}</style></defs><title>rangiranje-10</title><g id="Layer_2" data-name="Layer 2"><g id="Layer_1-2" data-name="Layer 1"><path class="cls-1" d="M7.25,19H.5a.5.5,0,0,1-.5-.5V5.75a.5.5,0,0,1,.5-.5H7.25a.5.5,0,0,1,.5.5V18.5A.5.5,0,0,1,7.25,19ZM1,18H6.75V6.25H1Z"/><path class="cls-1" d="M20.75,19H14a.5.5,0,0,1-.5-.5V8.75a.5.5,0,0,1,.5-.5h6.75a.5.5,0,0,1,.5.5V18.5A.5.5,0,0,1,20.75,19ZM14.5,18h5.75V9.25H14.5Z"/><path class="cls-1" d="M14,19H7.25a.5.5,0,0,1-.5-.5V.5a.5.5,0,0,1,.5-.5H14a.5.5,0,0,1,.5.5v18A.5.5,0,0,1,14,19ZM7.75,18H13.5V1H7.75Z"/></g></g></svg>