<svg xmlns="http://www.w3.org/2000/svg" viewBox="0 0 26.2 19"><defs><style>.cls-1{fill:#fff;}</style></defs><title>registar-10</title><g id="Layer_2" data-name="Layer 2"><g id="Layer_1-2" data-name="Layer 1"><path class="cls-1" d="M25.06,19H1.14A1.14,1.14,0,0,1,0,17.86V1.14A1.14,1.14,0,0,1,1.14,0h5.1A1.13,1.13,0,0,1,7,.33l2,2a.14.14,0,0,0,.1,0h15.9A1.14,1.14,0,0,1,26.2,3.54V17.86A1.14,1.14,0,0,1,25.06,19ZM1.14,1A.14.14,0,0,0,1,1.14V17.86a.14.14,0,0,0,.14.14H25.06a.14.14,0,0,0,.14-.14V3.54a.14.14,0,0,0-.14-.14H9.16a1.13,1.13,0,0,1-.8-.33l-2-2a.14.14,0,0,0-.1,0Z"/></g></g></svg>