<svg xmlns="http://www.w3.org/2000/svg" viewBox="0 0 72 64"><defs><style>.cls-1{fill:#fff;}.cls-2{fill:none;}</style></defs><title>registar</title><g id="Layer_2" data-name="Layer 2"><g id="Layer_1-2" data-name="Layer 1"><path class="cls-1" d="M68,63H4a3,3,0,0,1-3-3V15.28a3,3,0,0,1,3-3H17.66a3,3,0,0,1,2.15.89l5.41,5.42a.37.37,0,0,0,.26.11H68a3,3,0,0,1,3,3V60A3,3,0,0,1,68,63ZM4,14.91a.37.37,0,0,0-.37.37V60a.37.37,0,0,0,.37.37H68a.37.37,0,0,0,.37-.37V21.69a.37.37,0,0,0-.37-.37H25.48a3,3,0,0,1-2.15-.89L17.92,15a.38.38,0,0,0-.26-.11Z"/><rect class="cls-2" width="72" height="64"/></g></g></svg>