<svg xmlns="http://www.w3.org/2000/svg" viewBox="0 0 72 64"><defs><style>.cls-1{fill:#fff;}.cls-2{fill:none;}</style></defs><title>rezultati</title><g id="Layer_2" data-name="Layer 2"><g id="Layer_1-2" data-name="Layer 1"><path class="cls-1" d="M68,10.26A3.1,3.1,0,0,0,67.12,8a3.64,3.64,0,0,0-2.67-1.09H55.18V4.79a2.54,2.54,0,0,0-2.54-2.54H19.36a2.54,2.54,0,0,0-2.54,2.54V6.9H7.55A3.64,3.64,0,0,0,4.88,8,3.09,3.09,0,0,0,4,10.29c.63,13.84,11.86,15.44,13.32,15.59a22.84,22.84,0,0,0,9.3,13.61,18.66,18.66,0,0,0,7.73,3.39V59.72H26.57a1.64,1.64,0,0,0,0,3.28H45.43a1.64,1.64,0,1,0,0-3.28H37.64V42.88a18.66,18.66,0,0,0,7.73-3.39,22.84,22.84,0,0,0,9.3-13.63C56.17,25.7,67.36,24.07,68,10.26Zm-52.06,12c-2.85-.78-8.18-3.39-8.39-12.12h8.39Zm36-.78c0,5.88-3.07,11.46-8.43,15.3a14.35,14.35,0,0,1-7.29,3h-.34a14.35,14.35,0,0,1-7.29-3C23.18,33,20.1,27.4,20.1,21.52v-16H51.89Zm4.17.76V10.15l8.65,0C64.31,18.88,58.92,21.5,56.06,22.27Z"/><rect class="cls-2" width="72" height="64"/></g></g></svg>