<svg xmlns="http://www.w3.org/2000/svg" viewBox="0 0 19.49 18.5"><defs><style>.cls-1{fill:#fff;}</style></defs><title>rezultati-10</title><g id="Layer_2" data-name="Layer 2"><g id="Layer_1-2" data-name="Layer 1"><path class="cls-1" d="M14.58,1V5.87A5.77,5.77,0,0,1,12,10.53a4.37,4.37,0,0,1-2.22.91h-.1a4.37,4.37,0,0,1-2.22-.91A5.77,5.77,0,0,1,4.9,5.87V1h9.68m.23-1H4.68A.77.77,0,0,0,3.9.77V5.87a6.75,6.75,0,0,0,3,5.47,5.39,5.39,0,0,0,2.74,1.09h.23a5.38,5.38,0,0,0,2.74-1.09,6.75,6.75,0,0,0,3-5.47V.77A.77.77,0,0,0,14.81,0Z"/><path class="cls-1" d="M4.63,7.23l-.53,0A4.59,4.59,0,0,1,0,2.45a.94.94,0,0,1,.27-.7,1.11,1.11,0,0,1,.81-.33H4.63ZM1.08,2.42c.06,2.66,1.69,3.45,2.55,3.69V2.42Z"/><path class="cls-1" d="M14.85,7.22V1.41h3.55a1.11,1.11,0,0,1,.81.33,1,1,0,0,1,.27.7,4.59,4.59,0,0,1-4.11,4.75Zm1-4.82V6.1a3.61,3.61,0,0,0,2.64-3.7Z"/><rect class="cls-1" x="9.24" y="12.26" width="1" height="5.74"/><path class="cls-1" d="M12.62,18.5H6.87a.5.5,0,0,1,0-1h5.74a.5.5,0,0,1,0,1Z"/></g></g></svg>