<svg xmlns="http://www.w3.org/2000/svg" viewBox="0 0 30 19"><defs><style>.cls-1{fill:#fff;}</style></defs><title>sluzbena-10</title><g id="Layer_2" data-name="Layer 2"><g id="Layer_1-2" data-name="Layer 1"><path class="cls-1" d="M28.4,19H1.6A1.6,1.6,0,0,1,0,17.4V1.6A1.6,1.6,0,0,1,1.6,0H28.4A1.6,1.6,0,0,1,30,1.6V17.4A1.6,1.6,0,0,1,28.4,19ZM1.6,1a.6.6,0,0,0-.6.6V17.4a.6.6,0,0,0,.6.6H28.4a.6.6,0,0,0,.6-.6V1.6a.6.6,0,0,0-.6-.6Z"/><path class="cls-1" d="M23.56,10H15a.5.5,0,0,1,0-1h8.56a.5.5,0,0,1,0,1Z"/><path class="cls-1" d="M26,7H15a.5.5,0,0,1,0-1H26a.5.5,0,0,1,0,1Z"/><path class="cls-1" d="M26,13H15a.5.5,0,0,1,0-1H26a.5.5,0,0,1,0,1Z"/><path class="cls-1" d="M7.5,10.5A3.5,3.5,0,1,1,11,7,3.5,3.5,0,0,1,7.5,10.5Zm0-6A2.5,2.5,0,1,0,10,7,2.5,2.5,0,0,0,7.5,4.5Z"/><path class="cls-1" d="M11.5,15.5A.5.5,0,0,1,11,15c0-.16-.05-4-3.5-4S4,14.84,4,15a.5.5,0,0,1-.5.5h0A.5.5,0,0,1,3,15c0-1.73.94-5,4.5-5S12,13.27,12,15a.5.5,0,0,1-.5.5Z"/></g></g></svg>