<svg xmlns="http://www.w3.org/2000/svg" viewBox="0 0 72 64"><defs><style>.cls-1{fill:#fff;}.cls-2{fill:none;}</style></defs><title>sluzbena</title><g id="Layer_2" data-name="Layer 2"><g id="Layer_1-2" data-name="Layer 1"><path class="cls-1" d="M67.28,18.67H4.72A3.73,3.73,0,0,0,1,22.39V59.28A3.73,3.73,0,0,0,4.72,63H67.28A3.73,3.73,0,0,0,71,59.28V22.39A3.73,3.73,0,0,0,67.28,18.67Zm1.39,40.61a1.39,1.39,0,0,1-1.39,1.39H4.72a1.39,1.39,0,0,1-1.39-1.39V22.39A1.39,1.39,0,0,1,4.72,21H67.28a1.39,1.39,0,0,1,1.39,1.39Z"/><path class="cls-1" d="M36,42H56a1.17,1.17,0,0,0,0-2.33H36A1.17,1.17,0,1,0,36,42Z"/><path class="cls-1" d="M61.67,32.67H36A1.17,1.17,0,1,0,36,35H61.67a1.17,1.17,0,0,0,0-2.33Z"/><path class="cls-1" d="M61.67,46.67H36A1.17,1.17,0,1,0,36,49H61.67a1.17,1.17,0,0,0,0-2.33Z"/><path class="cls-1" d="M21.77,42.48a8.17,8.17,0,1,0-6.53,0C9.61,44.18,8,50.22,8,53.67a1.17,1.17,0,0,0,1.16,1.17h0a1.17,1.17,0,0,0,1.17-1.16c0-.38.13-9.34,8.17-9.34s8.16,9,8.17,9.34a1.17,1.17,0,0,0,1.17,1.16h0A1.17,1.17,0,0,0,29,53.67C29,50.22,27.39,44.18,21.77,42.48ZM12.67,35a5.83,5.83,0,1,1,5.83,5.83A5.84,5.84,0,0,1,12.67,35Z"/><rect class="cls-2" width="72" height="64"/></g></g></svg>