<svg xmlns="http://www.w3.org/2000/svg" viewBox="0 0 72 64"><defs><style>.cls-1{fill:#fff;}.cls-2{fill:none;}</style></defs><title>treneri</title><g id="Layer_2" data-name="Layer 2"><g id="Layer_1-2" data-name="Layer 1"><path class="cls-1" d="M24.87,20.39a1.52,1.52,0,0,0,2.54-1.69l-7-10.51a1.52,1.52,0,0,0-2.54,1.69Z"/><path class="cls-1" d="M36.23,21.06a1.52,1.52,0,0,0,1.27-.68l7-10.51A1.52,1.52,0,1,0,42,8.18L35,18.69a1.52,1.52,0,0,0,1.27,2.37Z"/><path class="cls-1" d="M31.19,18.61a1.52,1.52,0,0,0,1.52-1.52V6.62a1.52,1.52,0,1,0-3,0V17.08A1.52,1.52,0,0,0,31.19,18.61Z"/><path class="cls-1" d="M53,24.55a20.31,20.31,0,0,0-4.89-.62H34.64a2.32,2.32,0,0,0-1.32.54,1.53,1.53,0,0,0-.23.28l-2.22,3.54-2.22-3.54a1.53,1.53,0,0,0-.23-.28,2.32,2.32,0,0,0-1.32-.54H6.9A2.89,2.89,0,0,0,4,26.8v4.78A2.87,2.87,0,0,0,6,34.3l21.45,7.3a1.06,1.06,0,0,1,.75,1c0,.28,0,.57,0,.86a19.19,19.19,0,0,0,6,14A19.93,19.93,0,0,0,48.05,63l1,0A19.85,19.85,0,0,0,68,44.33,19.67,19.67,0,0,0,53,24.55ZM48.88,59.93a16.9,16.9,0,0,1-12.62-4.68,16.18,16.18,0,0,1-5.08-11.79c0-.23,0-.45,0-.69a4.11,4.11,0,0,0-2.81-4.06L7,31.58,6.9,27H26.45l2.87,4.58a1.58,1.58,0,0,0,.23.28,1.9,1.9,0,0,0,2.65,0,1.58,1.58,0,0,0,.23-.28L35.29,27H48.07a17.29,17.29,0,0,1,4.16.53A16.61,16.61,0,0,1,64.93,44.19,16.78,16.78,0,0,1,48.88,59.93Z"/><path class="cls-1" d="M48.47,33.94a9.53,9.53,0,1,0,9.7,9.53A9.63,9.63,0,0,0,48.47,33.94Zm0,16a6.48,6.48,0,1,1,6.65-6.48A6.58,6.58,0,0,1,48.47,49.95Z"/><rect class="cls-2" width="72" height="64"/></g></g></svg>