<svg xmlns="http://www.w3.org/2000/svg" viewBox="0 0 21 19"><defs><style>.cls-1{fill:#fff;}</style></defs><title>treneri-10</title><g id="Layer_2" data-name="Layer 2"><g id="Layer_1-2" data-name="Layer 1"><path class="cls-1" d="M7.27,5.24A.5.5,0,0,1,6.85,5L4.55,1.57A.5.5,0,0,1,5.38,1l2.3,3.45a.5.5,0,0,1-.42.78Z"/><path class="cls-1" d="M10.58,5.24a.5.5,0,0,1-.42-.78L12.46,1a.5.5,0,0,1,.83.55L11,5A.5.5,0,0,1,10.58,5.24Z"/><path class="cls-1" d="M8.92,4.43a.5.5,0,0,1-.5-.5V.5a.5.5,0,0,1,1,0V3.93A.5.5,0,0,1,8.92,4.43Z"/><path class="cls-1" d="M14.46,19A6.54,6.54,0,0,1,9.9,17.18a6.3,6.3,0,0,1-2-4.59c0-.09,0-.19,0-.28A.35.35,0,0,0,7.68,12l-7-2.4A.94.94,0,0,1,0,8.69V7.12a1,1,0,0,1,1-.94H7.58A.76.76,0,0,1,8,6.36l.07.09.73,1.16.73-1.16.07-.09a.76.76,0,0,1,.43-.18h4.41a6.67,6.67,0,0,1,1.61.2A6.45,6.45,0,0,1,21,12.87,6.51,6.51,0,0,1,14.77,19ZM1,7.18,1,8.69,8,11a1.35,1.35,0,0,1,.92,1.33c0,.08,0,.15,0,.23a5.31,5.31,0,0,0,1.67,3.87A5.57,5.57,0,0,0,20,12.83a5.45,5.45,0,0,0-4.17-5.48h0a5.67,5.67,0,0,0-1.37-.17H10.27l-.94,1.5-.07.09a.62.62,0,0,1-.87,0l-.07-.09-.94-1.5Z"/><path class="cls-1" d="M14.59,15.72a3.13,3.13,0,1,1,3.18-3.13A3.16,3.16,0,0,1,14.59,15.72Zm0-5.25a2.13,2.13,0,1,0,2.18,2.13A2.16,2.16,0,0,0,14.59,10.46Z"/></g></g></svg>